<svg xmlns="http://www.w3.org/2000/svg" xmlns:xlink="http://www.w3.org/1999/xlink" width="500" zoomAndPan="magnify" viewBox="0 0 375 374.999991" height="500" preserveAspectRatio="xMidYMid meet" version="1.0"><defs><g/><clipPath id="1890b18a53"><path d="M 45.941406 140.707031 L 147.191406 140.707031 L 147.191406 204.457031 L 45.941406 204.457031 Z M 45.941406 140.707031 " clip-rule="nonzero"/></clipPath></defs><rect x="-37.5" width="450" fill="#ffffff" y="-37.499999" height="449.999989" fill-opacity="1"/><rect x="-37.5" width="450" fill="#ffbd59" y="-37.499999" height="449.999989" fill-opacity="1"/><g clip-path="url(#1890b18a53)"><path fill="#ffffff" d="M 144.957031 152.53125 C 142.734375 152.53125 142.027344 152.53125 142.027344 152.53125 L 140.683594 161.226562 L 140.683594 148.40625 C 140.683594 148.40625 140.90625 146.183594 138.394531 146.183594 C 135.878906 146.183594 135.71875 146.183594 135.71875 146.183594 L 134.054688 157.75 L 134.054688 145.644531 C 134.054688 145.644531 134.316406 140.71875 128.882812 140.71875 C 128.882812 140.71875 123.824219 140.503906 123.824219 145.484375 C 123.824219 147.566406 123.824219 154.011719 123.824219 160.804688 L 104.972656 160.804688 C 104.570312 158.621094 103.664062 156.835938 98.433594 156.148438 C 93.136719 155.453125 90.554688 157.273438 89.625 159.421875 C 89.449219 159.835938 89.230469 160.304688 88.992188 160.800781 L 69.367188 160.800781 C 69.367188 154.003906 69.367188 147.558594 69.367188 145.480469 C 69.367188 140.503906 64.308594 140.71875 64.308594 140.71875 C 58.871094 140.71875 59.136719 145.644531 59.136719 145.644531 L 59.136719 157.75 L 57.472656 146.183594 C 57.472656 146.183594 57.3125 146.183594 54.796875 146.183594 C 52.28125 146.183594 52.507812 148.40625 52.507812 148.40625 L 52.507812 161.226562 L 51.164062 152.53125 C 51.164062 152.53125 50.457031 152.53125 48.234375 152.53125 C 46.011719 152.53125 45.941406 154.695312 45.941406 154.695312 L 45.941406 170.566406 C 45.941406 172.910156 48.109375 173.179688 48.109375 173.179688 L 52.523438 173.179688 C 52.523438 173.179688 52.453125 174.09375 52.453125 176.792969 C 52.453125 179.492188 54.574219 179.402344 54.574219 179.402344 L 58.40625 179.402344 L 59.160156 174.300781 C 59.160156 174.300781 59.160156 177.832031 59.160156 180.484375 C 59.160156 183.140625 62.539062 185.042969 64.171875 185.042969 C 68.875 185.046875 69.367188 180.429688 69.367188 180.429688 C 69.367188 180.429688 69.367188 173.292969 69.367188 165.40625 L 86.542969 165.40625 C 86.253906 165.898438 85.992188 166.320312 85.785156 166.617188 C 84.855469 167.9375 81.644531 172.640625 80.222656 174.925781 C 78.800781 177.210938 78.601562 178.597656 77.972656 180.550781 C 77.34375 182.503906 77.210938 183.5625 76.714844 185.683594 C 75.988281 189.03125 77.011719 190.117188 78.667969 191.644531 C 80.324219 193.167969 84.460938 195.21875 90.21875 198.363281 C 93.957031 200.78125 100.511719 201.636719 103.441406 200.546875 C 109.300781 197.742188 109.832031 202.558594 111.320312 204.105469 C 113.324219 205.476562 117.441406 196.585938 117.105469 189.792969 C 117.105469 184.640625 114.128906 180.40625 111.207031 180.351562 C 108.289062 180.292969 104.910156 182.753906 104.910156 182.753906 C 104.410156 181.550781 102.039062 179.09375 99.289062 178.699219 C 96.539062 178.300781 93.628906 181.246094 93.628906 181.246094 C 93.628906 181.246094 93.296875 177.800781 93.199219 174.324219 C 93.097656 170.847656 93.492188 168.667969 94.421875 165.917969 C 94.585938 167.238281 97.035156 167.835938 99.917969 168.203125 C 102.796875 168.566406 103.328125 166.878906 104.285156 165.917969 C 104.433594 165.769531 104.558594 165.59375 104.664062 165.402344 L 123.816406 165.402344 C 123.816406 173.289062 123.816406 180.425781 123.816406 180.425781 C 123.816406 180.425781 124.304688 185.042969 129.011719 185.042969 C 130.636719 185.042969 134.019531 183.140625 134.019531 180.484375 C 134.019531 177.832031 134.019531 174.300781 134.019531 174.300781 L 134.777344 179.402344 L 138.605469 179.402344 C 138.605469 179.402344 140.726562 179.488281 140.726562 176.792969 C 140.726562 174.089844 140.65625 173.179688 140.65625 173.179688 L 145.070312 173.179688 C 145.070312 173.179688 147.242188 172.910156 147.242188 170.566406 L 147.242188 154.695312 C 147.25 154.695312 147.179688 152.53125 144.957031 152.53125 Z M 144.957031 152.53125 " fill-opacity="1" fill-rule="nonzero"/></g><g fill="#ffffff" fill-opacity="1"><g transform="translate(125.492972, 205.359081)"><g><path d="M 6.671875 -6.078125 L 6.671875 -1.75 L 9.75 -1.3125 L 9.734375 0 L 0.84375 0 L 0.6875 -0.828125 C 1.21875 -1.148438 1.910156 -1.488281 2.765625 -1.84375 L 2.765625 -15.359375 L 0.875 -15.578125 L 0.90625 -16.890625 L 9.1875 -17.09375 C 11.175781 -17.09375 12.78125 -16.566406 14 -15.515625 C 15.226562 -14.460938 15.84375 -13.132812 15.84375 -11.53125 C 15.84375 -10 15.257812 -8.71875 14.09375 -7.6875 C 12.925781 -6.664062 11.425781 -6.140625 9.59375 -6.109375 Z M 6.671875 -14.703125 L 6.671875 -8.375 C 7.359375 -8.226562 8.019531 -8.15625 8.65625 -8.15625 C 9.695312 -8.15625 10.484375 -8.484375 11.015625 -9.140625 C 11.546875 -9.804688 11.8125 -10.617188 11.8125 -11.578125 C 11.8125 -12.316406 11.671875 -13.019531 11.390625 -13.6875 C 11.117188 -14.351562 10.738281 -14.820312 10.25 -15.09375 Z M 6.671875 -14.703125 "/></g></g></g><g fill="#ffffff" fill-opacity="1"><g transform="translate(141.71812, 205.359081)"><g><path d="M 14.5625 -5.109375 C 14.59375 -3.429688 14.488281 -1.726562 14.25 0 L 0.828125 0 L 0.671875 -0.828125 C 1.160156 -1.148438 1.882812 -1.5 2.84375 -1.875 L 2.84375 -15.359375 L 0.953125 -15.578125 L 0.96875 -16.890625 L 14.375 -16.890625 C 14.457031 -15.484375 14.320312 -13.859375 13.96875 -12.015625 L 11.8125 -12.015625 L 11.375 -14.5625 L 6.75 -14.890625 L 6.75 -9.375 L 12.265625 -9.8125 L 12.265625 -7.21875 L 6.75 -7.4375 L 6.75 -2.125 L 11.546875 -2.46875 L 12.40625 -5.265625 Z M 14.5625 -5.109375 "/></g></g></g><g fill="#ffffff" fill-opacity="1"><g transform="translate(157.558172, 205.359081)"><g><path d="M 18.640625 -1.3125 L 18.609375 0 L 10.53125 0 L 10.375 -0.828125 C 10.851562 -1.117188 11.597656 -1.476562 12.609375 -1.90625 L 11.53125 -4.671875 L 5.421875 -4.671875 L 4.28125 -1.640625 L 6.65625 -1.3125 L 6.625 0 L -0.359375 0 L -0.515625 -0.828125 C -0.00390625 -1.148438 0.707031 -1.488281 1.625 -1.84375 L 7.296875 -15.78125 L 6.984375 -16.578125 L 10.34375 -17.515625 L 16.8125 -1.5625 Z M 10.78125 -6.625 L 8.46875 -12.6875 L 6.15625 -6.625 Z M 10.78125 -6.625 "/></g></g></g><g fill="#ffffff" fill-opacity="1"><g transform="translate(176.016847, 205.359081)"><g><path d="M 18.234375 -1.328125 L 18.203125 0 L 13.046875 0 L 7.796875 -7.34375 L 6.75 -6.234375 L 6.75 -1.625 L 8.90625 -1.3125 L 8.875 0 L 0.828125 0 L 0.671875 -0.828125 C 1.160156 -1.148438 1.882812 -1.5 2.84375 -1.875 L 2.84375 -15.296875 L 0.84375 -15.578125 L 0.875 -16.890625 L 8.75 -16.890625 L 8.90625 -16.078125 C 8.269531 -15.691406 7.550781 -15.335938 6.75 -15.015625 L 6.75 -9.265625 L 12.421875 -15.328125 L 10.734375 -15.578125 L 10.75 -16.890625 L 17.125 -16.890625 L 17.28125 -16.078125 C 16.914062 -15.835938 16.203125 -15.519531 15.140625 -15.125 L 10.34375 -10.03125 L 16.640625 -1.59375 Z M 18.234375 -1.328125 "/></g></g></g><g fill="#ffffff" fill-opacity="1"><g transform="translate(194.475522, 205.359081)"><g><path d="M 6.671875 -14.890625 L 6.671875 -8.875 L 12.40625 -9.296875 L 12.40625 -6.59375 L 6.671875 -6.859375 L 6.671875 -1.75 L 9.75 -1.3125 L 9.734375 0 L 0.84375 0 L 0.6875 -0.828125 C 1.21875 -1.148438 1.910156 -1.488281 2.765625 -1.84375 L 2.765625 -15.359375 L 0.875 -15.578125 L 0.90625 -16.890625 L 14.296875 -16.890625 C 14.378906 -15.398438 14.242188 -13.738281 13.890625 -11.90625 L 11.734375 -11.90625 L 11.296875 -14.5625 Z M 6.671875 -14.890625 "/></g></g></g><g fill="#ffffff" fill-opacity="1"><g transform="translate(209.85347, 205.359081)"><g><path d="M 9.109375 -1.3125 L 9.09375 0 L 0.828125 0 L 0.671875 -0.828125 C 1.160156 -1.148438 1.882812 -1.5 2.84375 -1.875 L 2.84375 -15.296875 L 0.875 -15.578125 L 0.90625 -16.890625 L 8.75 -16.890625 L 8.90625 -16.078125 C 8.269531 -15.691406 7.550781 -15.335938 6.75 -15.015625 L 6.75 -1.640625 Z M 9.109375 -1.3125 "/></g></g></g><g fill="#ffffff" fill-opacity="1"><g transform="translate(219.660437, 205.359081)"><g><path d="M 16.328125 -17.046875 L 16.359375 -16.296875 C 16.359375 -14.535156 16.210938 -12.976562 15.921875 -11.625 L 13.859375 -11.625 L 13.484375 -14.859375 L 10.25 -15.125 L 10.25 -1.6875 L 12.859375 -1.3125 L 12.84375 0 L 3.875 0 L 3.71875 -0.828125 C 4.09375 -1.066406 4.96875 -1.453125 6.34375 -1.984375 L 6.34375 -15.125 L 3.078125 -14.859375 L 2.703125 -11.625 L 0.640625 -11.625 C 0.347656 -12.976562 0.203125 -14.535156 0.203125 -16.296875 L 0.234375 -17.046875 L 8.3125 -16.9375 Z M 16.328125 -17.046875 "/></g></g></g><g fill="#ffffff" fill-opacity="1"><g transform="translate(236.219333, 205.359081)"><g><path d="M 19.171875 -16.078125 C 18.640625 -15.742188 17.945312 -15.398438 17.09375 -15.046875 L 17 0 L 13.375 0.328125 L 5.265625 -12.109375 L 5.640625 -8.953125 L 5.640625 -1.640625 L 7.90625 -1.3125 L 7.875 0 L 0.828125 0 L 0.671875 -0.828125 C 1.160156 -1.148438 1.882812 -1.5 2.84375 -1.875 L 2.84375 -15.296875 L 1.046875 -15.578125 L 1.078125 -16.890625 L 6.78125 -16.890625 L 6.75 -16.859375 L 14.6875 -4.46875 L 14.296875 -7.734375 L 14.296875 -15.21875 L 11.8125 -15.578125 L 11.828125 -16.890625 L 19.015625 -16.890625 Z M 19.171875 -16.078125 "/></g></g></g><g fill="#ffffff" fill-opacity="1"><g transform="translate(256.089994, 205.359081)"><g><path d="M 14.5625 -5.109375 C 14.59375 -3.429688 14.488281 -1.726562 14.25 0 L 0.828125 0 L 0.671875 -0.828125 C 1.160156 -1.148438 1.882812 -1.5 2.84375 -1.875 L 2.84375 -15.359375 L 0.953125 -15.578125 L 0.96875 -16.890625 L 14.375 -16.890625 C 14.457031 -15.484375 14.320312 -13.859375 13.96875 -12.015625 L 11.8125 -12.015625 L 11.375 -14.5625 L 6.75 -14.890625 L 6.75 -9.375 L 12.265625 -9.8125 L 12.265625 -7.21875 L 6.75 -7.4375 L 6.75 -2.125 L 11.546875 -2.46875 L 12.40625 -5.265625 Z M 14.5625 -5.109375 "/></g></g></g><g fill="#ffffff" fill-opacity="1"><g transform="translate(271.930045, 205.359081)"><g><path d="M 13.84375 -4.640625 C 13.84375 -3.117188 13.238281 -1.878906 12.03125 -0.921875 C 10.820312 0.0351562 9.300781 0.515625 7.46875 0.515625 C 6.476562 0.515625 5.398438 0.363281 4.234375 0.0625 C 3.066406 -0.238281 2.109375 -0.632812 1.359375 -1.125 L 1.328125 -1.84375 C 1.328125 -3.269531 1.46875 -4.625 1.75 -5.90625 L 3.59375 -5.90625 L 4.859375 -2.3125 C 5.929688 -1.8125 7.160156 -1.5625 8.546875 -1.5625 C 9.484375 -2.007812 9.953125 -2.726562 9.953125 -3.71875 C 9.953125 -4.625 9.398438 -5.382812 8.296875 -6 L 4.4375 -7.953125 C 2.40625 -9.117188 1.390625 -10.582031 1.390625 -12.34375 C 1.390625 -13.832031 2.003906 -15.046875 3.234375 -15.984375 C 4.460938 -16.929688 6.046875 -17.40625 7.984375 -17.40625 C 9.691406 -17.40625 11.382812 -17.097656 13.0625 -16.484375 C 13.0625 -14.671875 12.914062 -13.101562 12.625 -11.78125 L 10.578125 -11.78125 L 9.828125 -14.65625 C 8.835938 -15.164062 7.648438 -15.40625 6.265625 -15.375 C 5.472656 -14.882812 5.078125 -14.191406 5.078125 -13.296875 C 5.078125 -12.785156 5.300781 -12.316406 5.75 -11.890625 C 6.207031 -11.472656 7.132812 -10.945312 8.53125 -10.3125 C 9.925781 -9.6875 10.953125 -9.144531 11.609375 -8.6875 C 12.273438 -8.238281 12.8125 -7.679688 13.21875 -7.015625 C 13.632812 -6.359375 13.84375 -5.566406 13.84375 -4.640625 Z M 13.84375 -4.640625 "/></g></g></g><g fill="#ffffff" fill-opacity="1"><g transform="translate(286.768866, 205.359081)"><g><path d="M 13.84375 -4.640625 C 13.84375 -3.117188 13.238281 -1.878906 12.03125 -0.921875 C 10.820312 0.0351562 9.300781 0.515625 7.46875 0.515625 C 6.476562 0.515625 5.398438 0.363281 4.234375 0.0625 C 3.066406 -0.238281 2.109375 -0.632812 1.359375 -1.125 L 1.328125 -1.84375 C 1.328125 -3.269531 1.46875 -4.625 1.75 -5.90625 L 3.59375 -5.90625 L 4.859375 -2.3125 C 5.929688 -1.8125 7.160156 -1.5625 8.546875 -1.5625 C 9.484375 -2.007812 9.953125 -2.726562 9.953125 -3.71875 C 9.953125 -4.625 9.398438 -5.382812 8.296875 -6 L 4.4375 -7.953125 C 2.40625 -9.117188 1.390625 -10.582031 1.390625 -12.34375 C 1.390625 -13.832031 2.003906 -15.046875 3.234375 -15.984375 C 4.460938 -16.929688 6.046875 -17.40625 7.984375 -17.40625 C 9.691406 -17.40625 11.382812 -17.097656 13.0625 -16.484375 C 13.0625 -14.671875 12.914062 -13.101562 12.625 -11.78125 L 10.578125 -11.78125 L 9.828125 -14.65625 C 8.835938 -15.164062 7.648438 -15.40625 6.265625 -15.375 C 5.472656 -14.882812 5.078125 -14.191406 5.078125 -13.296875 C 5.078125 -12.785156 5.300781 -12.316406 5.75 -11.890625 C 6.207031 -11.472656 7.132812 -10.945312 8.53125 -10.3125 C 9.925781 -9.6875 10.953125 -9.144531 11.609375 -8.6875 C 12.273438 -8.238281 12.8125 -7.679688 13.21875 -7.015625 C 13.632812 -6.359375 13.84375 -5.566406 13.84375 -4.640625 Z M 13.84375 -4.640625 "/></g></g></g></svg>