<svg xmlns="http://www.w3.org/2000/svg" xmlns:xlink="http://www.w3.org/1999/xlink" width="500" zoomAndPan="magnify" viewBox="0 0 375 374.999991" height="500" preserveAspectRatio="xMidYMid meet" version="1.0"><defs><clipPath id="1cae797305"><path d="M 112.929688 129.15625 L 262.179688 129.15625 L 262.179688 222.90625 L 112.929688 222.90625 Z M 112.929688 129.15625 " clip-rule="nonzero"/></clipPath></defs><g clip-path="url(#1cae797305)"><path fill="#ffffff" d="M 258.6875 146.554688 C 255.414062 146.554688 254.375 146.554688 254.375 146.554688 L 252.398438 159.355469 L 252.398438 140.480469 C 252.398438 140.480469 252.730469 137.207031 249.027344 137.207031 C 245.324219 137.207031 245.089844 137.207031 245.089844 137.207031 L 242.636719 154.238281 L 242.636719 136.414062 C 242.636719 136.414062 243.027344 129.167969 235.027344 129.167969 C 235.027344 129.167969 227.582031 128.847656 227.582031 136.179688 C 227.582031 139.246094 227.582031 148.730469 227.582031 158.734375 L 199.832031 158.734375 C 199.238281 155.519531 197.90625 152.886719 190.207031 151.878906 C 182.40625 150.855469 178.609375 153.535156 177.242188 156.699219 C 176.980469 157.304688 176.660156 157.996094 176.308594 158.726562 L 147.414062 158.726562 C 147.414062 148.71875 147.414062 139.234375 147.414062 136.171875 C 147.414062 128.847656 139.96875 129.167969 139.96875 129.167969 C 131.964844 129.167969 132.355469 136.414062 132.355469 136.414062 L 132.355469 154.238281 L 129.90625 137.207031 C 129.90625 137.207031 129.671875 137.207031 125.96875 137.207031 C 122.265625 137.207031 122.597656 140.480469 122.597656 140.480469 L 122.597656 159.355469 L 120.621094 146.554688 C 120.621094 146.554688 119.582031 146.554688 116.308594 146.554688 C 113.035156 146.554688 112.929688 149.742188 112.929688 149.742188 L 112.929688 173.101562 C 112.929688 176.554688 116.125 176.949219 116.125 176.949219 L 122.625 176.949219 C 122.625 176.949219 122.519531 178.296875 122.519531 182.265625 C 122.519531 186.242188 125.640625 186.109375 125.640625 186.109375 L 131.28125 186.109375 L 132.394531 178.601562 C 132.394531 178.601562 132.394531 183.796875 132.394531 187.703125 C 132.394531 191.613281 137.367188 194.414062 139.769531 194.414062 C 146.695312 194.421875 147.414062 187.621094 147.414062 187.621094 C 147.414062 187.621094 147.414062 177.117188 147.414062 165.507812 L 172.703125 165.507812 C 172.273438 166.234375 171.890625 166.851562 171.582031 167.285156 C 170.214844 169.234375 165.492188 176.15625 163.398438 179.519531 C 161.304688 182.882812 161.007812 184.929688 160.082031 187.800781 C 159.15625 190.675781 158.964844 192.234375 158.230469 195.359375 C 157.160156 200.28125 158.667969 201.886719 161.105469 204.128906 C 163.542969 206.375 169.636719 209.394531 178.113281 214.019531 C 183.617188 217.578125 193.265625 218.84375 197.574219 217.234375 C 206.199219 213.109375 206.980469 220.199219 209.175781 222.472656 C 212.125 224.492188 218.183594 211.40625 217.6875 201.40625 C 217.6875 193.820312 213.308594 187.589844 209.007812 187.503906 C 204.710938 187.421875 199.738281 191.042969 199.738281 191.042969 C 199 189.273438 195.511719 185.652344 191.464844 185.074219 C 187.417969 184.488281 183.132812 188.824219 183.132812 188.824219 C 183.132812 188.824219 182.644531 183.753906 182.496094 178.636719 C 182.351562 173.519531 182.933594 170.304688 184.300781 166.257812 C 184.542969 168.207031 188.148438 169.082031 192.390625 169.621094 C 196.628906 170.160156 197.410156 167.675781 198.820312 166.257812 C 199.039062 166.039062 199.21875 165.78125 199.375 165.503906 L 227.570312 165.503906 C 227.570312 177.113281 227.570312 187.613281 227.570312 187.613281 C 227.570312 187.613281 228.289062 194.414062 235.214844 194.414062 C 237.609375 194.414062 242.589844 191.613281 242.589844 187.703125 C 242.589844 183.796875 242.589844 178.601562 242.589844 178.601562 L 243.703125 186.109375 L 249.339844 186.109375 C 249.339844 186.109375 252.464844 186.234375 252.464844 182.265625 C 252.464844 178.292969 252.359375 176.949219 252.359375 176.949219 L 258.859375 176.949219 C 258.859375 176.949219 262.050781 176.554688 262.050781 173.101562 L 262.050781 149.742188 C 262.0625 149.742188 261.960938 146.554688 258.6875 146.554688 Z M 258.6875 146.554688 " fill-opacity="1" fill-rule="nonzero"/></g></svg>