<svg width="112" height="159" viewBox="0 0 112 159" fill="none" xmlns="http://www.w3.org/2000/svg">
<mask id="mask0_1992_1316" style="mask-type:luminance" maskUnits="userSpaceOnUse" x="0" y="0" width="112" height="159">
<path d="M0.294189 0.235352H111.769V158.142H0.294189V0.235352Z" fill="white"/>
</mask>
<g mask="url(#mask0_1992_1316)">
<path d="M17.3884 157.992H94.7067C95.2668 157.99 95.8251 157.961 96.3815 157.904C96.9379 157.849 97.4924 157.763 98.0395 157.651C98.5885 157.538 99.1319 157.399 99.6659 157.234C100.202 157.066 100.729 156.874 101.246 156.655C101.761 156.434 102.267 156.19 102.761 155.919C103.254 155.649 103.734 155.355 104.199 155.037C104.664 154.719 105.113 154.378 105.545 154.014C105.978 153.65 106.391 153.268 106.788 152.862C107.184 152.458 107.558 152.033 107.913 151.591C108.269 151.149 108.602 150.688 108.913 150.214C109.223 149.738 109.512 149.246 109.776 148.742C110.04 148.237 110.279 147.721 110.494 147.191C110.708 146.663 110.896 146.124 111.06 145.578C111.222 145.029 111.36 144.475 111.47 143.913C111.579 143.353 111.661 142.787 111.717 142.217C111.773 141.648 111.801 141.076 111.801 140.503V17.9264C111.801 17.353 111.773 16.7834 111.717 16.2139C111.661 15.6443 111.579 15.0786 111.47 14.5166C111.36 13.9547 111.222 13.4003 111.06 12.8536C110.896 12.305 110.708 11.7659 110.494 11.2383C110.279 10.7087 110.04 10.1925 109.776 9.68769C109.512 9.18289 109.223 8.69333 108.913 8.21711C108.602 7.74088 108.269 7.2818 107.913 6.83796C107.558 6.39603 107.184 5.97314 106.788 5.56739C106.391 5.16356 105.978 4.77877 105.545 4.41493C105.113 4.053 104.664 3.71202 104.199 3.3939C103.734 3.07579 103.254 2.78053 102.761 2.51003C102.267 2.24144 101.761 1.99571 101.246 1.77664C100.729 1.55758 100.202 1.36328 99.6659 1.19755C99.1319 1.02992 98.5885 0.890866 98.0395 0.778477C97.4924 0.666088 96.9379 0.582273 96.3815 0.525125C95.8251 0.467979 95.2668 0.439405 94.7067 0.4375H17.3884C16.8282 0.439405 16.27 0.467979 15.7136 0.525125C15.1572 0.582273 14.6045 0.666088 14.0555 0.778477C13.5065 0.890866 12.9632 1.02992 12.4291 1.19755C11.8931 1.36328 11.3665 1.55758 10.851 1.77664C10.3337 1.99571 9.82755 2.24144 9.33441 2.51003C8.84128 2.78053 8.36117 3.07579 7.89594 3.3939C7.43072 3.71202 6.98224 4.053 6.55052 4.41493C6.11693 4.77877 5.70381 5.16356 5.30744 5.56739C4.91293 5.97314 4.53703 6.39603 4.1816 6.83796C3.82617 7.2818 3.49307 7.74088 3.1823 8.21711C2.87153 8.69333 2.58309 9.18289 2.31884 9.68769C2.0546 10.1925 1.8164 10.7087 1.6024 11.2383C1.38653 11.7659 1.19858 12.305 1.03483 12.8536C0.872927 13.4003 0.735221 13.9547 0.625429 14.5166C0.515636 15.0786 0.433756 15.6443 0.37793 16.2139C0.322103 16.7834 0.294189 17.353 0.294189 17.9264V140.503C0.294189 141.076 0.322103 141.648 0.37793 142.217C0.433756 142.787 0.515636 143.353 0.625429 143.913C0.735221 144.475 0.872927 145.029 1.03483 145.578C1.19858 146.124 1.38653 146.663 1.6024 147.191C1.8164 147.721 2.0546 148.237 2.31884 148.742C2.58309 149.246 2.87153 149.738 3.1823 150.214C3.49307 150.688 3.82617 151.149 4.1816 151.591C4.53703 152.033 4.91293 152.458 5.30744 152.862C5.70381 153.268 6.11693 153.65 6.55052 154.014C6.98224 154.378 7.43072 154.719 7.89594 155.037C8.36117 155.355 8.84128 155.649 9.33441 155.919C9.82755 156.19 10.3337 156.434 10.851 156.655C11.3665 156.874 11.8931 157.066 12.4291 157.234C12.9632 157.399 13.5065 157.538 14.0555 157.651C14.6045 157.763 15.1572 157.849 15.7136 157.904C16.27 157.961 16.8282 157.99 17.3884 157.992ZM94.7067 151.279H17.3884C17.0441 151.279 16.6998 151.26 16.3556 151.226C16.0132 151.191 15.6726 151.138 15.3339 151.069C14.9953 151.001 14.6622 150.915 14.3309 150.812C14.0015 150.709 13.6777 150.591 13.3595 150.456C13.0395 150.321 12.7287 150.17 12.4254 150.003C12.1202 149.837 11.8262 149.656 11.5396 149.46C11.2511 149.264 10.9757 149.054 10.7096 148.829C10.4416 148.606 10.1867 148.37 9.94293 148.121C9.69915 147.871 9.4684 147.61 9.24881 147.336C9.03109 147.063 8.82453 146.781 8.63286 146.488C8.44118 146.195 8.2644 145.892 8.1025 145.581C7.93874 145.269 7.79173 144.951 7.65961 144.625C7.52748 144.299 7.41211 143.968 7.31162 143.631C7.21113 143.294 7.12739 142.951 7.0604 142.604C6.99155 142.259 6.9413 141.911 6.90781 141.56C6.87245 141.208 6.8557 140.855 6.8557 140.503V70.214H105.239V140.503C105.239 140.855 105.223 141.208 105.187 141.56C105.154 141.911 105.103 142.259 105.036 142.604C104.968 142.951 104.884 143.294 104.783 143.631C104.683 143.968 104.568 144.299 104.435 144.625C104.303 144.951 104.156 145.269 103.993 145.581C103.831 145.892 103.654 146.195 103.462 146.488C103.27 146.781 103.066 147.063 102.846 147.336C102.627 147.61 102.396 147.871 102.152 148.121C101.908 148.37 101.653 148.606 101.387 148.829C101.119 149.054 100.844 149.264 100.557 149.46C100.271 149.656 99.9748 149.837 99.6697 150.003C99.3663 150.17 99.0556 150.321 98.7355 150.456C98.4173 150.591 98.0935 150.709 97.7641 150.812C97.4329 150.915 97.0998 151.001 96.7611 151.069C96.4224 151.138 96.0819 151.191 95.7394 151.226C95.3952 151.26 95.0528 151.279 94.7067 151.279ZM17.3884 7.15227H94.7067C95.0528 7.15227 95.3952 7.16941 95.7394 7.2037C96.0819 7.2399 96.4224 7.29133 96.7611 7.35991C97.0998 7.42848 97.4329 7.5142 97.7641 7.61707C98.0935 7.71993 98.4173 7.83803 98.7355 7.97328C99.0556 8.10853 99.3663 8.25902 99.6697 8.42665C99.9748 8.59238 100.271 8.77334 100.557 8.96955C100.844 9.16575 101.119 9.37529 101.387 9.60007C101.653 9.82294 101.908 10.0611 102.152 10.3106C102.396 10.5601 102.627 10.8211 102.846 11.0935C103.066 11.3659 103.27 11.6497 103.462 11.9431C103.654 12.2364 103.831 12.5374 103.993 12.8498C104.156 13.1603 104.303 13.4784 104.435 13.8042C104.568 14.1299 104.683 14.4614 104.783 14.8004C104.884 15.1376 104.968 15.4786 105.036 15.8253C105.103 16.1701 105.154 16.5187 105.187 16.8711C105.223 17.2216 105.239 17.574 105.239 17.9264V63.5011H6.8557V17.9264C6.8557 17.574 6.87245 17.2216 6.90781 16.8711C6.9413 16.5187 6.99155 16.1701 7.0604 15.8253C7.12739 15.4786 7.21113 15.1376 7.31162 14.8004C7.41211 14.4614 7.52748 14.1299 7.65961 13.8042C7.79173 13.4784 7.93874 13.1603 8.1025 12.8498C8.2644 12.5374 8.44118 12.2364 8.63286 11.9431C8.82453 11.6497 9.03109 11.3659 9.24881 11.0935C9.4684 10.8211 9.69915 10.5601 9.94293 10.3106C10.1867 10.0611 10.4416 9.82294 10.7096 9.60007C10.9757 9.37529 11.2511 9.16575 11.5396 8.96955C11.8262 8.77334 12.1202 8.59238 12.4254 8.42665C12.7287 8.25902 13.0395 8.10853 13.3595 7.97328C13.6777 7.83803 14.0015 7.71993 14.3309 7.61707C14.6622 7.5142 14.9953 7.42848 15.3339 7.35991C15.6726 7.29133 16.0132 7.2399 16.3556 7.2037C16.6998 7.16941 17.0441 7.15227 17.3884 7.15227Z" fill="black"/>
</g>
<path d="M20.8011 54.0772H91.262C91.7459 54.0772 92.226 54.0296 92.7024 53.9324C93.1769 53.8353 93.6384 53.6924 94.0869 53.5019C94.5354 53.3133 94.9596 53.0809 95.3634 52.8047C95.7654 52.5285 96.1394 52.2161 96.4818 51.8656C96.8242 51.5151 97.1313 51.1322 97.3993 50.7208C97.6691 50.3093 97.8961 49.8731 98.0822 49.4159C98.2683 48.9568 98.4079 48.4844 98.5028 47.9987C98.5977 47.511 98.6442 47.0214 98.6442 46.5243V23.8674C98.6442 23.3721 98.5977 22.8806 98.5028 22.3949C98.4079 21.9072 98.2683 21.4348 98.0822 20.9776C97.8961 20.5186 97.6691 20.0842 97.3993 19.6709C97.1313 19.2594 96.8242 18.8784 96.4818 18.526C96.1394 18.1755 95.7654 17.8631 95.3634 17.5869C94.9596 17.3126 94.5354 17.0802 94.0869 16.8897C93.6384 16.6992 93.1769 16.5564 92.7024 16.4592C92.226 16.364 91.7459 16.3145 91.262 16.3145H20.8011C20.3154 16.3145 19.8353 16.364 19.3608 16.4592C18.8844 16.5564 18.4229 16.6992 17.9744 16.8897C17.5278 17.0802 17.1017 17.3126 16.6997 17.5869C16.2959 17.8631 15.9237 18.1755 15.5795 18.526C15.2371 18.8784 14.9319 19.2594 14.6621 19.6709C14.3922 20.0842 14.1652 20.5186 13.9791 20.9776C13.7949 21.4348 13.6553 21.9072 13.5604 22.3949C13.4655 22.8806 13.4171 23.3721 13.4171 23.8674V46.5243C13.4171 47.0214 13.4655 47.511 13.5604 47.9987C13.6553 48.4844 13.7949 48.9568 13.9791 49.4159C14.1652 49.8731 14.3922 50.3093 14.6621 50.7208C14.9319 51.1322 15.2371 51.5151 15.5795 51.8656C15.9237 52.2161 16.2959 52.5285 16.6997 52.8047C17.1017 53.0809 17.5278 53.3133 17.9744 53.5019C18.4229 53.6924 18.8844 53.8353 19.3608 53.9324C19.8353 54.0296 20.3154 54.0772 20.8011 54.0772ZM19.9805 23.8674C19.9805 23.7569 20.001 23.6483 20.0419 23.5455C20.0847 23.4426 20.1442 23.3531 20.2205 23.275C20.2968 23.195 20.3862 23.134 20.4867 23.0921C20.5871 23.0502 20.6913 23.0273 20.8011 23.0273H91.262C91.37 23.0273 91.476 23.0502 91.5765 23.0921C91.677 23.134 91.7645 23.195 91.8426 23.2731C91.9189 23.3531 91.9785 23.4426 92.0194 23.5455C92.0604 23.6483 92.0827 23.7569 92.0827 23.8674V46.5243C92.0827 46.6366 92.0604 46.7433 92.0194 46.8462C91.9785 46.9491 91.9189 47.0386 91.8426 47.1186C91.7645 47.1967 91.677 47.2576 91.5765 47.2996C91.476 47.3434 91.37 47.3643 91.262 47.3643H20.8011C20.6913 47.3643 20.5871 47.3434 20.4867 47.2996C20.3862 47.2576 20.2968 47.1967 20.2205 47.1186C20.1442 47.0386 20.0847 46.9491 20.0419 46.8462C20.001 46.7433 19.9805 46.6366 19.9805 46.5243V23.8674Z" fill="black"/>
<path d="M13.4171 97.4365H30.7253V79.7476H13.4171V97.4365ZM19.9805 86.4604H24.1638V90.7236H19.9805V86.4604Z" fill="black"/>
<path d="M36.0828 97.4365H53.3742V79.7476H36.0828V97.4365ZM42.6443 86.4604H46.8108V90.7236H42.6443V86.4604Z" fill="black"/>
<path d="M58.73 97.4365H76.014V79.7476H58.73V97.4365ZM65.2915 86.4604H69.4506V90.7236H65.2915V86.4604Z" fill="black"/>
<path d="M81.3696 97.4365H98.6611V79.7476H81.3696V97.4365ZM87.9311 86.4604H92.0977V90.7236H87.9311V86.4604Z" fill="black"/>
<path d="M13.4171 120.204H30.7253V102.513H13.4171V120.204ZM19.9805 109.228H24.1638V113.491H19.9805V109.228Z" fill="black"/>
<path d="M36.0828 120.204H53.3742V102.513H36.0828V120.204ZM42.6443 109.228H46.8108V113.491H42.6443V109.228Z" fill="black"/>
<path d="M58.73 120.204H76.014V102.513H58.73V120.204ZM65.2915 109.228H69.4506V113.491H65.2915V109.228Z" fill="black"/>
<path d="M81.3696 120.204H98.6611V102.513H81.3696V120.204ZM87.9311 109.228H92.0977V113.491H87.9311V109.228Z" fill="black"/>
<path d="M13.4171 142.962H30.7253V125.281H13.4171V142.962ZM19.9805 131.994H24.1638V136.249H19.9805V131.994Z" fill="black"/>
<path d="M36.0828 142.962H53.3742V125.281H36.0828V142.962ZM42.6443 131.994H46.8108V136.249H42.6443V131.994Z" fill="black"/>
<path d="M58.73 142.962H76.014V125.281H58.73V142.962ZM65.2915 131.994H69.4506V136.249H65.2915V131.994Z" fill="black"/>
<path d="M81.3696 142.962H98.6611V125.281H81.3696V142.962ZM87.9311 131.994H92.0977V136.249H87.9311V131.994Z" fill="black"/>
</svg>
