<svg width="149" height="158" viewBox="0 0 149 158" fill="none" xmlns="http://www.w3.org/2000/svg">
<mask id="mask0_2190_1745" style="mask-type:luminance" maskUnits="userSpaceOnUse" x="0" y="0" width="114" height="146">
<path d="M0 0H113.43V145.809H0V0Z" fill="white"/>
</mask>
<g mask="url(#mask0_2190_1745)">
<path d="M69.6959 140.719H12.8444C8.59593 140.719 5.13737 137.397 5.13737 133.312V12.3437C5.13737 8.25964 8.59593 4.9375 12.8444 4.9375H100.19C104.44 4.9375 107.897 8.25964 107.897 12.3437V70.4584C107.897 71.8204 109.047 72.9272 110.466 72.9272C111.886 72.9272 113.034 71.8204 113.034 70.4584V12.3437C113.034 5.53754 107.273 0 100.19 0H12.8444C5.76296 0 0 5.53754 0 12.3437V133.312C0 140.117 5.76296 145.656 12.8444 145.656H69.6959C71.1154 145.656 72.2656 144.549 72.2656 143.187C72.2656 141.824 71.1154 140.719 69.6959 140.719Z" fill="white"/>
</g>
<mask id="mask1_2190_1745" style="mask-type:luminance" maskUnits="userSpaceOnUse" x="71" y="73" width="79" height="85">
<path d="M71.8758 73.6357H149.006V158H71.8758V73.6357Z" fill="white"/>
</mask>
<g mask="url(#mask1_2190_1745)">
<path d="M142.159 95.4562C139.429 92.8103 136.018 90.8711 132.308 89.812C133.121 88.01 133.579 86.0251 133.579 83.9373V76.5311C133.579 75.1671 132.428 74.0623 131.009 74.0623H123.302C116.86 74.0623 111.336 77.8816 109.036 83.2858C107.9 80.5199 106.555 77.8283 104.952 75.2605C104.223 74.0909 102.646 73.7118 101.428 74.4147C100.21 75.1157 99.8165 76.632 100.547 77.8016C103.226 82.0934 105.172 86.7375 106.395 91.5569L105.716 91.2293C102.434 89.6672 98.9217 88.8748 95.2731 88.8748C82.399 88.8748 71.9223 98.9403 71.9223 111.315V119.955C71.9223 126.097 73.1636 132.103 75.6145 137.819C78.101 143.528 81.6407 148.612 86.1367 152.931C89.5358 156.2 94.0595 158 98.8722 158H122.043C126.854 158 131.377 156.2 134.776 152.931C143.812 144.252 148.991 132.232 148.991 119.955V111.315C148.991 105.295 146.56 99.6584 142.157 95.4562H142.159ZM113.025 88.8748C113.025 83.4287 117.634 78.9998 123.302 78.9998H128.439V83.9373C128.439 89.3815 123.83 93.8123 118.165 93.8123H113.025V88.8748ZM143.853 119.955C143.853 130.931 139.223 141.681 131.144 149.441C128.712 151.775 125.482 153.062 122.043 153.062H98.8722C95.4314 153.062 92.2005 151.775 89.7695 149.441C85.7486 145.576 82.5831 141.027 80.3618 135.926C78.1723 130.821 77.0597 125.447 77.0597 119.955V111.315C77.0597 101.664 85.2319 93.8123 95.2731 93.8123C98.1219 93.8123 100.868 94.4314 103.42 95.6486L107.528 97.6297C107.749 99.4984 107.888 101.379 107.888 103.27V103.687C107.888 105.049 109.038 106.156 110.458 106.156C111.877 106.156 113.025 105.049 113.025 103.687V103.27C113.025 101.756 112.938 100.251 112.807 98.7498H118.165C122.508 98.7498 126.43 97.0068 129.235 94.2199C132.735 94.8905 136.002 96.502 138.522 98.946C141.959 102.226 143.853 106.619 143.853 111.315V119.955Z" fill="white"/>
</g>
<path d="M97.6278 49.375V14.8125C97.6278 13.4486 96.4776 12.3438 95.0581 12.3438H17.9897C16.5682 12.3438 15.42 13.4486 15.42 14.8125V49.375C15.42 50.7389 16.5682 51.8437 17.9897 51.8437H95.0581C96.4776 51.8437 97.6278 50.7389 97.6278 49.375ZM92.4884 46.9062H20.5574V17.2812H92.4884V46.9062Z" fill="white"/>
<path d="M38.5358 64.1875C38.5358 61.4635 36.2295 59.25 33.3965 59.25H23.1217C20.2888 59.25 17.9844 61.4635 17.9844 64.1875V74.0625C17.9844 76.7846 20.2888 79 23.1217 79H33.3965C36.2295 79 38.5358 76.7846 38.5358 74.0625V64.1875ZM23.1217 74.0625V64.1875H33.3965L33.4004 74.0625H23.1217Z" fill="white"/>
<path d="M66.7946 64.1875C66.7946 61.4635 64.4882 59.25 61.6553 59.25H51.3805C48.5476 59.25 46.2432 61.4635 46.2432 64.1875V74.0625C46.2432 76.7846 48.5476 79 51.3805 79H61.6553C64.4882 79 66.7946 76.7846 66.7946 74.0625V64.1875ZM51.3805 74.0625V64.1875H61.6553L61.6592 74.0625H51.3805Z" fill="white"/>
<path d="M38.5358 91.3437C38.5358 88.6197 36.2295 86.4062 33.3965 86.4062H23.1217C20.2888 86.4062 17.9844 88.6197 17.9844 91.3437V101.219C17.9844 103.941 20.2888 106.156 23.1217 106.156H33.3965C36.2295 106.156 38.5358 103.941 38.5358 101.219V91.3437ZM23.1217 101.219V91.3437H33.3965L33.4004 101.219H23.1217Z" fill="white"/>
<path d="M66.7946 91.3437C66.7946 88.6197 64.4882 86.4062 61.6553 86.4062H51.3805C48.5476 86.4062 46.2432 88.6197 46.2432 91.3437V101.219C46.2432 103.941 48.5476 106.156 51.3805 106.156H61.6553C64.4882 106.156 66.7946 103.941 66.7946 101.219V91.3437ZM51.3805 101.219V91.3437H61.6553L61.6592 101.219H51.3805Z" fill="white"/>
<path d="M33.3965 113.562H23.1217C20.2888 113.562 17.9844 115.776 17.9844 118.5V128.375C17.9844 131.097 20.2888 133.312 23.1217 133.312H33.3965C36.2295 133.312 38.5358 131.097 38.5358 128.375V118.5C38.5358 115.776 36.2295 113.562 33.3965 113.562ZM23.1217 128.375V118.5H33.3965L33.4004 128.375H23.1217Z" fill="white"/>
<path d="M61.6553 113.562H51.3805C48.5476 113.562 46.2432 115.776 46.2432 118.5V128.375C46.2432 131.097 48.5476 133.312 51.3805 133.312H61.6553C64.4882 133.312 66.7946 131.097 66.7946 128.375V118.5C66.7946 115.776 64.4882 113.562 61.6553 113.562ZM51.3805 128.375V118.5H61.6553L61.6592 128.375H51.3805Z" fill="white"/>
<path d="M79.6393 59.25C76.8063 59.25 74.5019 61.4635 74.5019 64.1875V74.0625C74.5019 76.7846 76.8063 79 79.6393 79H89.916C92.747 79 95.0533 76.7846 95.0533 74.0625V64.1875C95.0533 61.4635 92.747 59.25 89.916 59.25H79.6393ZM79.6393 74.0625V64.1875H89.916L89.918 74.0625H79.6393Z" fill="white"/>
<path d="M35.9627 41.9687H38.5323C39.9518 41.9687 41.1 40.8639 41.1 39.5C41.1 38.1361 39.9518 37.0312 38.5323 37.0312H35.9627C33.1297 37.0312 30.8253 34.8178 30.8253 32.0937C30.8253 29.3697 33.1297 27.1562 35.9627 27.1562H38.5323C39.9518 27.1562 41.1 26.0514 41.1 24.6875C41.1 23.3236 39.9518 22.2188 38.5323 22.2188H35.9627C30.2947 22.2188 25.6859 26.6495 25.6859 32.0937C25.6859 37.5379 30.2947 41.9687 35.9627 41.9687Z" fill="white"/>
<path d="M48.8109 41.9687C50.2323 41.9687 51.3805 40.8639 51.3805 39.5V37.0312H56.5179V39.5C56.5179 40.8639 57.6681 41.9687 59.0876 41.9687C60.507 41.9687 61.6553 40.8639 61.6553 39.5V29.625C61.6553 25.5409 58.1987 22.2188 53.9502 22.2188C49.6997 22.2188 46.2432 25.5409 46.2432 29.625V39.5C46.2432 40.8639 47.3914 41.9687 48.8109 41.9687ZM53.9502 27.1562C55.3677 27.1562 56.5179 28.2649 56.5179 29.625V32.0937H51.3805V29.625C51.3805 28.2649 52.5327 27.1562 53.9502 27.1562Z" fill="white"/>
<path d="M69.3596 41.9687H79.6363C81.0558 41.9687 82.206 40.8639 82.206 39.5C82.206 38.1361 81.0558 37.0312 79.6363 37.0312H71.9293V24.6875C71.9293 23.3236 70.7811 22.2188 69.3596 22.2188C67.9402 22.2188 66.7919 23.3236 66.7919 24.6875V39.5C66.7919 40.8639 67.9402 41.9687 69.3596 41.9687Z" fill="white"/>
</svg>
