<svg width="30" height="30" viewBox="0 0 30 30" fill="none" xmlns="http://www.w3.org/2000/svg">
<path d="M6.96396 9.85834C6.60584 7.49959 8.26896 5.38084 10.8096 4.60459C11.2605 4.46767 11.7465 4.50734 12.1692 4.71556C12.5919 4.92377 12.9196 5.28494 13.0858 5.72584L13.9015 7.90084C14.0328 8.25074 14.0565 8.63189 13.9696 8.99538C13.8828 9.35887 13.6893 9.68811 13.414 9.94084L10.9877 12.1627C10.868 12.2723 10.7787 12.4112 10.7288 12.5657C10.6788 12.7202 10.6698 12.885 10.7027 13.044L10.7252 13.1415L10.7833 13.3852C11.0858 14.5693 11.5455 15.7075 12.1502 16.7696C12.8104 17.8972 13.6287 18.9245 14.5802 19.8202L14.6552 19.8877C14.7763 19.9952 14.9233 20.0695 15.0816 20.1034C15.24 20.1372 15.4045 20.1295 15.559 20.0808L18.6958 19.0927C19.0523 18.9808 19.4341 18.9779 19.7923 19.0845C20.1504 19.1911 20.4685 19.4022 20.7058 19.6908L22.1908 21.4927C22.8096 22.2427 22.7346 23.3452 22.024 24.0071C20.0796 25.8202 17.4058 26.1915 15.5458 24.6971C13.2649 22.859 11.3428 20.6158 9.87584 18.0802C8.39457 15.548 7.4078 12.7582 6.96396 9.85834ZM12.6677 13.1677L14.6777 11.3227C15.2287 10.8175 15.616 10.1591 15.7901 9.4321C15.9641 8.70511 15.917 7.94269 15.6546 7.24271L14.8408 5.06771C14.507 4.18041 13.8479 3.45345 12.9975 3.0345C12.1471 2.61555 11.169 2.53603 10.2621 2.81209C7.10646 3.77771 4.57334 6.60709 5.10959 10.1415C5.48459 12.609 6.34896 15.7477 8.25584 19.0252C9.83855 21.7592 11.912 24.1778 14.3721 26.1596C17.1621 28.4002 20.8858 27.6352 23.3046 25.3815C23.9967 24.7371 24.4168 23.8528 24.4791 22.9093C24.5415 21.9657 24.2415 21.0339 23.6402 20.304L22.1552 18.5002C21.6802 17.9236 21.0437 17.5021 20.3275 17.2896C19.6112 17.0771 18.8478 17.0834 18.1352 17.3077L15.5308 18.1271C14.8584 17.4338 14.2693 16.6642 13.7758 15.834C13.2996 14.9944 12.9281 14.0996 12.6696 13.1696" fill="white"/>
</svg>
