<svg width="159" height="165" viewBox="0 0 159 165" fill="none" xmlns="http://www.w3.org/2000/svg">
<path fill-rule="evenodd" clip-rule="evenodd" d="M141.217 151.067C141.217 153.102 139.789 154.629 138.126 154.629C136.461 154.629 135.033 153.102 135.033 151.067C135.033 149.03 136.461 147.504 138.126 147.504C139.789 147.504 141.217 149.03 141.217 151.067Z" fill="white"/>
<path d="M119.992 66.6745C120.706 66.9279 121.182 66.9279 121.895 67.1826C123.323 67.6922 124.512 67.947 125.7 67.947C124.512 68.9646 123.56 70.2371 122.609 71.5095C121.895 69.7275 120.944 68.2003 119.992 66.6745ZM140.209 47.8428C139.733 52.1682 138.068 57.7675 135.689 60.0576C133.55 62.3477 129.03 63.3653 125.224 63.112C126.176 59.548 128.079 54.713 129.982 52.423C131.885 50.3876 136.641 48.6056 140.209 47.8428ZM113.809 40.971C120.944 46.8251 122.371 52.423 120.706 61.8396C117.138 60.3123 113.333 57.0031 112.382 53.9502C111.668 49.8781 111.668 45.5527 113.809 40.971ZM144.729 29.7739C144.015 34.1007 142.35 39.1905 139.971 41.2258C137.592 43.2611 132.36 44.5336 128.554 44.0254C129.744 40.4629 131.171 36.6456 134.263 33.5912C136.165 31.5559 141.16 30.2834 144.729 29.7739ZM118.327 21.3764C122.133 24.176 124.274 27.9933 124.988 30.7915C125.7 33.5912 124.988 38.9357 124.274 42.753C120.944 40.971 117.138 37.6633 116.662 34.3555C115.235 28.5014 116.662 24.6841 118.327 21.3764ZM135.689 7.63434C137.83 11.7064 138.544 17.8138 137.83 20.6135C137.117 23.6665 134.501 26.4661 131.171 27.9933C129.03 24.9389 127.603 21.1216 128.317 18.0686C129.03 15.269 131.885 10.1792 135.689 7.63434ZM134.977 2.79938C129.268 6.36191 125.462 11.4517 124.036 16.7962C123.798 17.8138 123.56 18.5767 123.56 19.5944C122.133 18.3219 120.706 17.0495 118.803 15.7771C117.852 15.0142 116.424 15.5237 115.711 16.5414C111.906 22.9036 110.717 29.5191 112.144 35.1184C111.668 35.3732 111.192 35.6279 110.717 36.1361C107.149 42.753 106.197 49.6233 108.1 55.4774C108.338 55.9855 108.576 56.7498 108.814 57.2579C107.862 57.0031 106.673 57.5127 106.197 58.5304C103.582 64.6378 103.582 72.0176 107.862 78.125C108.576 79.1441 110.003 79.3974 110.955 78.6346C111.906 77.8717 112.144 76.3445 111.43 75.3268C108.814 71.7643 108.576 66.6745 109.527 62.8572C114.285 66.165 118.565 71.5095 119.992 75.8349C120.468 77.8717 123.085 78.125 124.036 76.3445C126.652 71.7643 130.695 68.7098 136.641 67.4374C136.641 70.4918 136.165 74.0544 135.215 76.3445C134.739 77.6169 135.215 78.8893 136.403 79.3974C137.592 79.907 138.782 79.3974 139.495 78.125C141.16 74.3092 141.636 69.4727 140.923 64.383C140.923 63.6201 140.209 62.8572 139.495 62.6024C143.301 58.5304 144.966 52.1682 144.729 45.0431C144.729 44.5336 144.491 43.7707 144.015 43.5159C147.344 39.6986 149.247 33.846 149.247 27.229C149.247 25.9566 148.295 24.9389 147.106 24.6841C144.966 24.4293 142.826 24.6841 140.923 24.9389C141.398 23.6665 141.874 22.6488 142.112 21.1216C143.063 15.5237 142.112 8.90678 138.068 3.05415C136.879 2.03504 135.927 2.28982 134.977 2.79938Z" fill="white"/>
<path d="M26.2919 126.986H88.8446C87.6552 145.055 74.337 159.051 57.4493 159.051C40.8008 159.051 27.4812 144.8 26.2919 126.986ZM57.4493 95.6844C59.828 95.6844 62.2068 97.2116 63.1583 99.2484C63.634 100.521 65.0599 101.029 66.2493 100.521C66.9629 100.266 67.4386 100.266 68.1522 100.266C71.0067 100.266 73.1476 102.556 73.1476 105.101C73.1476 107.136 75.0492 108.409 76.7143 107.391C77.428 107.136 78.1416 106.882 78.8552 106.882C81.2339 106.882 83.1369 108.664 83.1369 110.954C83.1369 111.463 83.1369 111.718 82.8991 112.226C82.4233 113.753 83.6127 115.535 85.0386 115.789C87.4173 116.043 89.0824 117.825 89.0824 119.861V121.643H25.8161V119.861C25.8161 117.825 27.4812 115.789 29.86 115.789C31.5251 115.789 32.4766 114.008 32.0008 112.226C32.0008 111.718 31.763 111.463 31.763 110.954C31.763 108.664 33.666 106.882 36.0433 106.882C36.757 106.882 37.4706 107.136 38.1842 107.391C39.8493 108.409 41.7523 107.136 41.7523 105.101C41.7523 102.556 43.8932 100.266 46.7463 100.266C47.4599 100.266 47.9357 100.266 48.6493 100.521C49.8387 101.029 51.028 100.521 51.7417 99.2484C52.931 97.2116 55.0705 95.6844 57.4493 95.6844ZM57.4493 90.3413C52.931 90.3413 50.0765 92.6314 48.4114 94.9215C43.1796 93.6491 38.66 97.7212 37.4706 101.538C36.757 101.284 36.757 101.538 36.0433 101.538C31.0494 101.538 26.7676 105.609 26.7676 110.954C22.7251 112.481 20.8221 116.043 20.8221 119.606V124.441C21.06 146.327 37.4706 164.141 57.4493 164.141C77.6658 164.141 94.0778 146.072 94.0778 124.188V123.933V119.606C94.0778 116.043 91.9369 112.226 88.1309 110.954C88.1309 105.609 83.8506 101.538 78.8552 101.538C78.1416 101.538 78.1416 101.538 77.428 101.538C76.2386 97.7212 71.4825 93.6491 66.4871 94.9215C64.822 92.6314 61.9689 90.3413 57.4493 90.3413Z" fill="white"/>
<path d="M98.8311 60.313C80.0418 63.1126 59.1116 63.8755 40.5602 60.8211C39.1329 60.5678 37.9436 61.5854 37.7057 63.1126C37.4678 64.6384 38.4193 65.9108 39.8466 66.1656C59.1116 69.22 80.2797 68.4557 99.5448 65.6561C100.972 65.4027 101.924 64.1303 101.686 62.6031C101.448 61.0759 100.258 60.0582 98.8311 60.313Z" fill="white"/>
<path d="M18.6764 38.4265C16.2976 40.4633 14.8704 43.2615 14.1568 46.3159C13.4445 49.3703 13.681 52.9329 15.584 55.9859C16.0598 56.7502 16.5355 57.5131 17.2491 58.2759C13.681 67.4378 11.0658 71.0003 7.49766 80.6702C0.60068 99.2487 -3.44317 118.08 3.92956 136.911C5.11893 139.71 4.88105 142.765 4.40531 145.31C4.16743 146.582 3.92956 148.108 3.92956 149.89C3.92956 151.672 4.64318 153.452 5.83255 154.98C8.21129 158.287 11.7794 159.052 15.3461 158.797C18.6764 158.542 22.2445 157.779 26.0491 157.779C27.4764 157.779 28.4278 156.507 28.4278 154.98C28.4278 153.452 27.2385 152.435 25.8112 152.435C21.5309 152.435 17.7249 153.452 15.1083 153.452C9.63853 153.452 8.68703 150.908 9.40065 146.073C9.8764 143.273 10.3521 139.71 8.44916 134.875C1.79005 117.061 6.78404 96.9571 12.0173 82.707C15.3461 73.8 17.9628 70.2374 21.293 61.5852C22.4824 62.0933 23.4338 62.6028 24.8597 63.1124C26.7627 63.6205 28.6657 64.13 30.5687 64.6381C31.996 64.8929 33.1853 64.13 33.4232 62.6028C33.6611 61.0756 32.9474 59.8032 31.5202 59.5484C29.6172 59.0403 27.9521 58.5307 26.0491 58.0226C22.4824 57.0035 20.5794 55.223 19.6279 53.441C18.6764 51.6604 18.4385 49.6237 18.9143 47.8431C19.39 45.8064 20.3415 44.0258 21.7687 43.0082C23.196 41.9891 24.6219 41.4809 26.0491 41.7357C41.9853 45.8064 55.7793 46.3159 68.1473 46.3159C78.8503 46.3159 90.5048 45.8064 103.824 43.2615C105.25 43.0082 105.964 41.4809 105.726 40.2085C105.488 38.6813 104.062 37.9184 102.873 38.1717C90.029 40.7166 78.6124 41.2262 68.1473 41.2262C56.0171 41.2262 42.6989 40.7166 27.2385 36.646C24.384 35.6283 20.8172 36.646 18.6764 38.4265Z" fill="white"/>
<mask id="mask0_2190_1724" style="mask-type:luminance" maskUnits="userSpaceOnUse" x="80" y="80" width="79" height="79">
<path d="M80.8568 80.6392H158.998V158.832H80.8568V80.6392Z" fill="white"/>
</mask>
<g mask="url(#mask0_2190_1724)">
<path d="M127.608 86.0144C134.982 86.0144 141.879 88.0512 146.397 91.1042C151.155 94.1586 153.533 98.2292 153.533 102.301C153.533 105.609 151.868 109.173 148.3 111.971C147.586 112.481 147.349 113.244 147.349 114.008V148.872C147.349 151.672 145.685 153.197 144.258 153.197H110.721C109.294 153.197 107.629 151.417 107.629 148.872V114.263C107.629 113.498 107.153 112.736 106.678 112.226C103.111 109.173 101.446 105.864 101.446 102.556C101.446 98.484 104.062 94.4119 108.581 91.359C113.576 88.0512 120.235 86.0144 127.608 86.0144ZM109.056 80.6699C97.164 80.6699 86.9368 84.9968 81.4671 92.1218C80.5156 93.1395 80.7534 94.9215 81.9428 95.9392C82.8943 96.9568 84.5594 96.7035 85.5096 95.431C89.3155 90.3413 97.6398 86.2692 107.391 85.7597C107.153 86.0144 106.678 86.2692 106.44 86.524C100.732 90.3413 96.9261 95.9392 96.9261 102.301C96.9261 106.882 99.7806 111.971 103.111 115.535V149.127C103.111 150.652 103.349 152.18 104.062 153.452H90.267C88.8398 153.452 87.8883 154.725 87.8883 155.997C87.8883 157.524 89.0777 158.542 90.267 158.542H144.971C149.489 158.542 152.82 153.962 152.82 148.872V115.535C156.149 111.971 159.003 106.882 159.003 102.301C159.003 95.9392 155.198 90.3413 149.489 86.524C143.782 82.7067 136.17 80.6699 127.846 80.6699H109.056Z" fill="white"/>
</g>
<path fill-rule="evenodd" clip-rule="evenodd" d="M140.453 103.829C140.453 105.864 139.026 107.391 137.361 107.391C135.696 107.391 134.032 105.609 134.032 103.829C134.032 101.793 135.458 100.266 137.123 100.266C138.788 100.266 140.453 101.793 140.453 103.829Z" fill="white"/>
<path fill-rule="evenodd" clip-rule="evenodd" d="M141.645 123.169C141.645 125.206 140.218 126.733 138.553 126.733C136.888 126.733 135.46 125.206 135.46 123.169C135.46 121.134 136.888 119.606 138.553 119.606C140.218 119.861 141.645 121.388 141.645 123.169Z" fill="white"/>
<path d="M54.3486 7.88939L33.8955 29.5194C32.944 30.5385 32.944 32.319 33.8955 33.3367C34.8456 34.3558 36.5108 34.3558 37.4623 33.3367L57.9167 11.7067C60.5333 8.90705 65.0516 5.34452 68.3818 5.34452C71.712 5.34452 76.2303 8.90705 78.8469 11.7067L99.3013 33.3367C100.253 34.3558 101.918 34.3558 102.869 33.3367C103.821 32.319 103.821 30.5385 102.869 29.5194L82.415 7.88939C79.3226 4.83497 74.5665 0 68.3818 0C62.1984 0 57.2031 4.83497 54.3486 7.88939Z" fill="white"/>
<path fill-rule="evenodd" clip-rule="evenodd" d="M70.0472 113.753C70.0472 115.789 68.62 117.316 66.9549 117.316C65.2898 117.316 63.8639 115.789 63.8639 113.753C63.8639 111.718 65.2898 110.191 66.9549 110.191C68.62 110.191 70.0472 111.718 70.0472 113.753Z" fill="white"/>
<path fill-rule="evenodd" clip-rule="evenodd" d="M52.689 107.901C52.689 109.936 51.2618 111.463 49.5967 111.463C47.9316 111.463 46.5043 109.936 46.5043 107.901C46.5043 105.864 47.9316 104.337 49.5967 104.337C51.2618 104.338 52.689 106.119 52.689 107.901Z" fill="white"/>
</svg>
