<svg width="168" height="151" viewBox="0 0 168 151" fill="none" xmlns="http://www.w3.org/2000/svg">
<mask id="mask0_2190_1695" style="mask-type:luminance" maskUnits="userSpaceOnUse" x="0" y="0" width="168" height="151">
<path d="M165.5 2.5V148.5H3.09375V2.5H165.5Z" fill="white" stroke="white" stroke-width="5"/>
</mask>
<g mask="url(#mask0_2190_1695)">
<path d="M42.5615 44.9521L42.5264 44.9775H42.5254C40.5959 45.8063 38.7053 46.8788 36.9043 48.1543C36.872 48.177 36.8165 48.194 36.7539 48.1836H36.7549C36.7285 48.179 36.7073 48.1704 36.6924 48.1611L36.6719 48.1436L36.6709 48.1426L36.3457 47.6855C32.9156 43.0217 27.405 40.2842 21.5195 40.2842C11.5761 40.2842 3.32528 48.0849 3.3252 57.8828C3.3252 66.7499 10.1805 74.1803 19.1113 75.3242V75.3252C19.1418 75.3291 19.1671 75.3391 19.1846 75.3496C19.1892 75.3524 19.1922 75.356 19.1953 75.3584C17.3395 81.8025 16.4043 88.6227 16.4043 95.6328C16.4043 118.015 25.1371 136.388 29.3154 143.9L29.7051 144.594L29.7061 144.595C31.083 147.013 33.6852 148.466 36.4629 148.466H69.3555C72.0455 148.466 74.5703 147.101 75.9785 144.82L76.1113 144.597L76.1133 144.593C80.1087 137.565 89.4131 118.502 89.4131 95.6328C89.4131 84.1452 86.8027 73.219 82.2705 64.3115C77.8905 55.7031 71.629 48.8256 64.0322 45.3076L63.293 44.9775H63.292C63.2716 44.9688 63.2616 44.958 63.2559 44.9521V12.6016H42.5615V44.9521ZM42.4453 2.53418C39.802 2.53418 37.4798 4.5574 37.3369 7.2832L37.3301 7.5498L37.3369 7.81543C37.4794 10.5396 39.7996 12.5674 42.4453 12.5674H63.3711C66.1052 12.5674 68.4872 10.4056 68.4873 7.5498C68.4873 4.69163 66.1029 2.53418 63.3711 2.53418H42.4453ZM42.3262 12.877L40.6328 12.2998C38.5177 11.5786 37.0948 9.67571 37.0947 7.5498C37.0947 4.85912 39.4047 2.50006 42.4414 2.5H63.3672C66.4055 2.5 68.7148 4.85869 68.7148 7.5498C68.7148 9.6099 67.3801 11.4594 65.373 12.2285L65.1768 12.2998L63.4834 12.877V44.9482L64.8779 45.6357C71.4985 48.9003 77.3479 54.801 81.8125 62.9922L82.2402 63.792C84.8458 68.761 86.7939 74.2648 88.0381 80.1191L89.0332 84.8027L92.3076 81.3096C92.9389 80.636 93.5895 79.9837 94.2607 79.3555L94.9385 78.7354L94.9395 78.7344C99.4799 74.6758 102.358 69.2367 102.966 63.3926L103.931 54.126V54.125C104.594 47.7241 110.166 42.7696 117.059 42.7695H123.417V22.6748C123.433 22.6591 123.47 22.6367 123.533 22.6367C123.596 22.6368 123.632 22.6592 123.648 22.6748V32.8906L128.008 28.0391C128.16 27.8696 128.221 27.8002 128.291 27.7295L128.53 27.4902C130.824 25.2654 134.173 24.0081 137.281 23.333C138.901 22.9812 140.362 22.8078 141.417 22.7217L139.993 22.9033C138.438 23.1011 136.41 23.4693 134.386 24.1709C132.696 24.7567 130.889 25.6182 129.362 26.9053H129.279L128.543 27.6602C126.895 29.3524 125.839 31.5944 125.146 33.6914C124.444 35.8198 124.051 38.0024 123.845 39.7617L123.489 42.7979H117.062C110.462 42.7979 104.842 47.5867 104.166 54.1055L103.201 63.3711C102.62 68.9489 99.9482 74.237 95.5967 78.3018L95.1709 78.6914H95.1699C93.1031 80.5395 91.2264 82.5929 89.585 84.8037L88.9922 85.6016L89.1094 86.5889C89.461 89.5485 89.6445 92.5703 89.6445 95.6328C89.6445 105.812 87.8252 115.182 85.4434 123.096L85.166 124.02L85.5801 124.891C92.3685 139.161 107.053 148.356 123.232 148.466H123.533C134.252 148.466 144.372 144.593 152.159 137.507L152.905 136.812L152.909 136.808C160.857 129.216 165.272 119.334 165.272 108.213C165.272 97.4227 160.717 87.0208 152.772 79.4912L151.993 78.7715L151.562 78.374C147.295 74.3645 144.617 69.1889 143.913 63.7051L143.849 63.1553L142.907 54.1055C142.232 47.5867 136.611 42.7979 130.011 42.7979H124.548L126.642 42.5332C128.201 42.3362 130.231 41.9682 132.256 41.2666C134.134 40.6159 136.157 39.627 137.778 38.0908L138.098 37.7764C139.744 36.0835 140.799 33.8421 141.491 31.7451C142.105 29.8831 142.483 27.9795 142.706 26.3535L142.792 25.6738L143.146 22.6426C143.187 22.6487 143.213 22.6614 143.227 22.6738C143.225 22.9503 143.194 25.4848 142.554 28.5938C141.901 31.7614 140.685 35.1734 138.545 37.5088L138.335 37.7314L138.333 37.7324C137.6 38.4872 136.734 39.1432 135.775 39.7139L131.772 42.0967L135.971 44.1152C139.783 45.9487 142.503 49.4825 143.087 53.7139L143.137 54.125V54.126L144.079 63.1758C144.699 69.1276 147.615 74.6734 152.221 78.8154L152.548 79.1094C160.793 86.6924 165.51 97.5837 165.51 108.216C165.51 118.666 161.404 128.503 153.884 136.047L153.146 136.77C145.229 144.335 134.734 148.5 123.542 148.5H123.235C108.586 148.402 95.2168 140.939 87.7158 129.133L85.0166 124.885L83.2627 129.603C81.0627 135.517 78.7297 140.226 77.041 143.315L76.3584 144.54C74.9876 146.951 72.3204 148.5 69.3594 148.5H36.4648C33.5965 148.5 31.0031 147.047 29.5957 144.763L29.4629 144.539C25.4603 137.502 16.1729 118.649 16.1729 95.6328C16.1729 89.5105 16.8893 83.5468 18.2969 77.8691L18.8857 75.4922L16.5215 74.8545C8.65567 72.7316 3.09375 65.778 3.09375 57.8828C3.09384 48.252 11.2696 40.2501 21.5156 40.25C26.9665 40.25 32.0381 42.5309 35.5078 46.4092L36.8877 47.9512L38.6602 46.8848C39.4152 46.4303 40.1761 46.0102 40.9355 45.6338L42.3262 44.9443V12.877Z" fill="white" stroke="white" stroke-width="5"/>
</g>
<path d="M28.514 80.5156H77.3236C77.3762 80.5156 77.4128 80.5324 77.433 80.5479C77.4378 80.5515 77.4408 80.5546 77.4427 80.5566L77.6185 81.291C78.6591 85.8735 79.1927 90.6945 79.1927 95.6328C79.1927 114.139 72.5738 129.615 68.3207 137.634L67.9174 138.387L67.9164 138.388C67.9157 138.389 67.9095 138.397 67.891 138.408C67.8688 138.421 67.8363 138.433 67.7953 138.433H38.0385C37.9992 138.433 37.9667 138.422 37.9437 138.408C37.9326 138.402 37.9256 138.395 37.9213 138.391L37.9154 138.384C33.6906 130.608 26.643 114.738 26.6429 95.6328C26.6429 90.437 27.2322 85.364 28.3969 80.5557C28.3987 80.5537 28.4019 80.5505 28.4066 80.5469C28.4261 80.5321 28.4619 80.5156 28.514 80.5156ZM28.1781 82.5449C27.3085 86.7697 26.8705 91.1648 26.8705 95.6328C26.8705 113.754 33.1825 128.911 37.4174 137.053L38.1176 138.398H67.7084L68.4095 137.053C72.6446 128.911 78.9535 113.754 78.9535 95.6328C78.9535 91.1556 78.5202 86.7657 77.6586 82.5488L77.2504 80.5498H28.5883L28.1781 82.5449Z" fill="white" stroke="white" stroke-width="5"/>
<path d="M123.533 90.5835C133.783 90.5835 141.958 98.5857 141.958 108.216C141.958 117.847 133.783 125.849 123.533 125.849C113.283 125.849 105.107 117.847 105.107 108.216C105.107 98.5857 113.283 90.5835 123.533 90.5835ZM123.533 90.6177C113.589 90.6177 105.338 98.4184 105.338 108.216C105.338 118.014 113.589 125.816 123.533 125.816C133.476 125.816 141.727 118.014 141.727 108.216C141.727 98.4184 133.476 90.6177 123.533 90.6177Z" fill="white" stroke="white" stroke-width="5"/>
</svg>
