<svg width="161" height="162" viewBox="0 0 161 162" fill="none" xmlns="http://www.w3.org/2000/svg">
<mask id="mask0_1966_310" style="mask-type:luminance" maskUnits="userSpaceOnUse" x="0" y="0" width="161" height="162">
<path d="M0 0.873535H160.71V161.185H0V0.873535Z" fill="white"/>
</mask>
<g mask="url(#mask0_1966_310)">
<path d="M74.885 112.956H76.5119C75.7282 110.862 77.9905 108.869 79.9718 110.011L82.8491 111.681L87.9155 102.899C88.8286 101.286 85.3687 98.6945 83.9769 97.8874C82.5765 96.9814 78.568 95.4986 77.735 96.9063L76.6992 98.7047L79.6191 100.396C80.7656 101.065 81.166 102.549 80.4897 103.696C79.8219 104.853 78.3534 105.248 77.2001 104.58L74.2904 102.899L68.5699 112.821L68.805 112.959H74.885V112.956ZM87.6361 113.057C89.3226 113.459 90.556 114.985 90.556 116.763V122.863C90.556 122.951 90.556 123.049 90.5458 123.136C90.7332 124.571 90.8183 125.946 90.8183 127.253C90.8183 132.046 89.7298 136.489 87.7536 140.475H147.635C152.072 140.475 155.717 136.829 155.717 132.379V13.8345C155.717 9.3844 152.075 5.73801 147.635 5.73801H61.0606C56.6245 5.73801 52.9789 9.3844 52.9789 13.8345V87.8731C60.4217 88.2263 67.2292 91.7942 71.7947 97.5291L73.5783 94.4338H73.5681C74.5766 92.7429 76.1251 91.859 77.9258 91.5962C75.7027 85.2402 78.3261 76.5158 84.6958 73.7636C85.5169 73.4001 86.5066 73.5076 87.2426 74.127C90.4555 76.8588 92.1216 80.8857 92.3839 84.9826C95.7638 83.6278 99.5542 83.3326 103.052 84.5918C103.924 84.9075 104.503 85.6617 104.627 86.5251V86.5148C105.578 93.1456 99.4758 100.005 92.8234 101.37C93.0381 102.667 92.8439 104.063 92.0875 105.31L87.6361 113.057ZM8.73064 123.146L8.7102 116.759C8.7102 116.111 8.87545 115.5 9.15824 114.969C4.91808 111.806 0.717102 107.682 0.253734 102.885C-0.0716458 99.4845 1.50755 96.6452 4.03393 94.3161C1.96751 90.8096 0.526303 86.9585 2.00499 83.7455C2.94536 81.6723 4.83631 80.4625 7.07138 79.8159C5.15998 73.1544 10.7562 66.6994 17.6113 67.701C20.5499 68.1242 23.0968 69.9022 24.5482 72.4463C29.572 70.8065 33.3351 71.3764 35.8513 74.1765C38.0949 76.6711 39.0063 80.925 38.5753 86.9209C40.6724 86.9994 42.7081 87.6871 44.4424 88.9241L48.1374 88.1085V13.8345C48.1374 6.70207 53.9465 0.885254 61.0572 0.885254H147.635C154.746 0.885254 160.555 6.70207 160.555 13.8345V132.379C160.555 139.503 154.746 145.328 147.635 145.328H84.7571C70.2598 164.574 36.0131 165.998 18.5278 149.66C11.1395 142.757 7.4666 133.461 8.73064 123.146ZM85.7179 117.809H13.5517V121.808H85.7179V117.809ZM85.9802 127.253C85.9802 127.055 85.9802 126.862 85.97 126.664H13.3166C13.2093 134.348 16.3915 141.037 21.8174 146.118C36.0694 159.441 63.3621 159.393 77.5561 146.118C82.8082 141.214 85.9802 134.708 85.9802 127.253ZM62.914 112.956L64.0197 111.04C63.4694 108.287 62.0112 105.861 59.9822 104.083C56.9942 101.471 52.8119 100.389 48.8665 101.343C48.5139 105.332 47.5837 109.192 46.2805 112.956H62.914ZM67.1644 105.571L69.161 102.112C64.5103 95.0106 56.2514 91.5621 47.9432 93.0517C48.444 94.1011 48.7864 95.2426 48.9312 96.4029C56.4644 95.1351 63.7641 98.9573 67.1644 105.571ZM88.0961 94.8126C88.8967 95.4013 89.665 96.0702 90.3277 96.7885C94.6786 96.7664 99.2237 92.7599 99.8387 88.7399C95.3771 88.0335 89.9308 90.8608 88.0961 94.8126ZM83.8934 92.434C84.7162 90.796 85.9598 89.2705 87.4589 87.9737C87.7162 86.1855 87.5986 84.2693 87.0586 82.4811C86.6855 81.2116 86.0876 80.024 85.2647 79.0036C81.8372 81.7525 80.6311 88.7399 83.8934 92.434ZM44.1033 100.302C44.1936 99.0818 44.3384 97.5615 44.025 96.3347C43.1919 93.1097 39.9024 91.0383 36.5293 91.9904C34.9109 92.4528 33.2074 91.1287 33.5021 89.221C34.2857 83.15 33.865 79.2118 32.2568 77.4236C30.9161 75.9203 28.2006 76.0381 24.1359 77.7666C22.7646 78.345 21.1888 77.5311 20.8464 76.0859C19.8583 71.8986 14.2638 71.1444 12.1582 74.8385C11.1974 76.5193 11.3575 78.63 12.5705 80.1452C13.7936 81.6757 12.7459 83.9366 10.8669 84.0748C9.0935 84.213 6.89932 84.643 6.39166 85.7658C5.65572 87.368 7.45808 90.8642 9.22127 93.4988C9.95721 94.5976 9.68123 96.0736 8.54325 96.8568C6.66423 98.1638 4.84994 100.247 5.05777 102.438C5.15317 103.498 5.66594 104.648 6.56712 105.897C8.15314 108.076 10.8873 110.437 14.7578 112.959H26.5141C26.0644 111.349 25.5635 109.736 25.0354 108.125L17.768 106.17C16.4852 105.827 15.722 104.499 16.0645 103.203C16.4052 101.918 17.7288 101.141 19.0218 101.495L23.0269 102.566L20.8532 97.3602L14.2314 95.5822C12.9401 95.2392 12.1752 93.9015 12.5177 92.6149C12.8601 91.3181 14.1837 90.552 15.4767 90.8966L18.1207 91.6133C17.6505 90.6697 17.1599 89.7381 16.6607 88.803C16.0253 87.6239 16.4648 86.1582 17.6403 85.5303C18.814 84.8921 20.2757 85.3324 20.9128 86.5114C21.5789 87.7485 22.2245 88.9958 22.8412 90.2448L24.417 87.641C25.1104 86.5012 26.601 86.1377 27.7373 86.8373C28.8735 87.5369 29.2364 89.018 28.5396 90.1681L25.308 95.4849L27.5396 100.839L28.9127 98.4522C29.589 97.2936 31.0575 96.8995 32.2125 97.5683C33.3709 98.2372 33.761 99.72 33.0932 100.877L29.6861 106.801C30.3641 108.852 30.9689 110.908 31.5277 112.959H41.1392C42.6843 108.898 43.8001 104.634 44.1033 100.302ZM117.515 96.7356C116.174 96.7356 115.096 95.6436 115.096 94.3093C115.096 92.9647 116.174 91.8829 117.515 91.8829H137.997L132.385 81.5375C132.13 81.1536 131.983 80.6929 131.983 80.1998V31.5801C131.983 26.0209 136.511 21.4702 142.065 21.4702C147.618 21.4702 152.145 26.0107 152.145 31.5801V80.2032C152.145 80.7338 152.017 81.0871 151.744 81.5409L144.182 95.4644C143.624 96.4968 142.724 96.7425 141.716 96.7425H117.515V96.7356ZM112.479 107.269H144.884C146.225 107.269 147.303 108.361 147.303 109.695V131.86C147.303 133.194 146.225 134.286 144.884 134.286H112.479C111.149 134.286 110.06 133.194 110.06 131.86V109.695C110.06 108.361 111.145 107.269 112.479 107.269ZM142.465 112.121H114.898V129.434H142.465V112.121ZM66.822 60.2666C65.8442 59.352 65.7845 57.8317 66.684 56.8506C67.5954 55.8763 69.1133 55.8166 70.0911 56.7226L73.333 59.7274L78.9071 52.9687H64.5069V67.411H78.9071V60.5618L75.4097 64.7764C74.5289 65.8377 72.9429 65.9384 71.9225 65.0016L66.822 60.2666ZM82.66 48.5084L85.1472 45.5104C86.0007 44.4764 87.5185 44.3416 88.5475 45.1948C89.5679 46.0496 89.7025 47.5717 88.8524 48.5938L83.7486 54.7365V69.8373C83.7486 71.1819 82.6702 72.2637 81.3295 72.2637H62.0912C60.7573 72.2637 59.6722 71.1819 59.6722 69.8373V50.5424C59.6722 49.2046 60.7607 48.116 62.0912 48.116H81.3295C81.8167 48.1126 82.2801 48.261 82.66 48.5084ZM93.1999 57.7618C91.8592 57.7618 90.7809 56.6697 90.7809 55.3354C90.7809 53.9908 91.8592 52.909 93.1999 52.909H114.857C116.198 52.909 117.276 53.9908 117.276 55.3354C117.276 56.6697 116.198 57.7618 114.857 57.7618H93.1999ZM93.1999 67.469C91.8592 67.469 90.7809 66.3889 90.7809 65.0545C90.7809 63.71 91.8592 62.6282 93.1999 62.6282H114.857C116.198 62.6282 117.276 63.71 117.276 65.0545C117.276 66.3889 116.198 67.469 114.857 67.469H93.1999ZM66.822 27.473C65.8442 26.5687 65.7845 25.0364 66.684 24.0621C67.5954 23.081 69.1133 23.023 70.0911 23.9239L73.333 26.9389L78.9071 20.17H64.5069V34.6259H78.9071V27.7784L75.4097 31.9828C74.5289 33.0424 72.9429 33.1499 71.9225 32.208L66.822 27.473ZM82.66 15.7233L85.1472 12.7185C86.0007 11.6964 87.5185 11.5617 88.5475 12.4029C89.5679 13.2594 89.7025 14.7815 88.8524 15.8138L83.7486 21.9548V37.0522C83.7486 38.39 82.6702 39.4786 81.3295 39.4786H62.0912C60.7573 39.4786 59.6722 38.3866 59.6722 37.0522V17.747C59.6722 16.4127 60.7607 15.3326 62.0912 15.3326H81.3295C81.8167 15.3292 82.2801 15.4674 82.66 15.7233ZM93.1999 24.9664C91.8592 24.9664 90.7809 23.8863 90.7809 22.5418C90.7809 21.2057 91.8592 20.1154 93.1999 20.1154H114.857C116.198 20.1154 117.276 21.2057 117.276 22.5418C117.276 23.8863 116.198 24.9664 114.857 24.9664H93.1999ZM93.1999 34.6856C91.8592 34.6856 90.7809 33.5936 90.7809 32.2592C90.7809 30.9249 91.8592 29.8328 93.1999 29.8328H114.857C116.198 29.8328 117.276 30.9249 117.276 32.2592C117.276 33.5936 116.198 34.6856 114.857 34.6856H93.1999ZM140.346 86.0951L142.061 89.2501L145.664 82.6193H138.457L140.346 86.0951ZM139.642 52.0422C139.642 50.7079 140.731 49.6175 142.061 49.6175C143.392 49.6175 144.48 50.7079 144.48 52.0422V77.7734H147.3V40.4222H136.818V77.7734H139.639V52.0422H139.642ZM136.821 35.5695H147.303V31.5801C147.303 26.9731 141.702 24.5262 138.36 27.8638C137.409 28.8176 136.821 30.1349 136.821 31.5801V35.5695Z" fill="black"/>
</g>
</svg>
