<svg width="183" height="159" viewBox="0 0 183 159" fill="none" xmlns="http://www.w3.org/2000/svg">
<path d="M173.742 46.7501H165.234V36.9251C165.234 31.5085 161.417 27.1001 156.727 27.1001H145.383C140.691 27.1001 136.875 31.5085 136.875 36.9251V69.6751H128.367V68.0376C128.367 61.7188 123.913 56.5751 118.441 56.5751C115.666 56.5751 113.154 57.8961 111.352 60.0226C109.548 57.8961 107.037 56.5751 104.262 56.5751C101.487 56.5751 98.9739 57.8961 97.1719 60.0226C95.3682 57.8961 92.8572 56.5751 90.082 56.5751C87.3068 56.5751 84.7942 57.8961 82.9922 60.0226C81.1885 57.8961 78.6776 56.5751 75.9023 56.5751C70.4291 56.5751 65.9766 61.7188 65.9766 68.0376V69.6751H46.125V36.9251C46.125 31.5085 42.3093 27.1001 37.6172 27.1001H26.2734C21.5813 27.1001 17.7656 31.5085 17.7656 36.9251V46.7501H9.25781C4.56571 46.7501 0.75 51.1566 0.75 56.5751V108.975C0.75 114.394 4.56571 118.8 9.25781 118.8H17.7656V128.625C17.7656 134.044 21.5813 138.45 26.2734 138.45H37.6172C42.3093 138.45 46.125 134.044 46.125 128.625V95.8751H54.6328V106.576C54.6328 110.975 55.803 115.192 58.0169 118.772L68.8125 136.223V154.825C68.8125 156.635 70.0828 158.1 71.6484 158.1C73.2141 158.1 74.4844 156.635 74.4844 154.825V135.175C74.4844 134.493 74.3006 133.826 73.9543 133.272L62.6319 114.966C61.1089 112.502 60.3047 109.602 60.3047 106.576V95.8751H68.8125C70.3782 95.8751 71.6484 94.4101 71.6484 92.6001V68.0376C71.6484 65.3293 73.5555 63.1251 75.9023 63.1251C78.2476 63.1251 80.1562 65.3293 80.1562 68.0376V72.9501C80.1562 74.7601 81.4249 76.2251 82.9922 76.2251C84.5579 76.2251 85.8281 74.7601 85.8281 72.9501V68.0376C85.8281 65.3293 87.7352 63.1251 90.082 63.1251C92.4273 63.1251 94.3359 65.3293 94.3359 68.0376V72.9501C94.3359 74.7601 95.6046 76.2251 97.1719 76.2251C98.7375 76.2251 100.008 74.7601 100.008 72.9501V68.0376C100.008 65.3293 101.915 63.1251 104.262 63.1251C106.607 63.1251 108.516 65.3293 108.516 68.0376V72.9501C108.516 74.7601 109.784 76.2251 111.352 76.2251C112.917 76.2251 114.188 74.7601 114.188 72.9501V68.0376C114.188 65.3293 116.095 63.1251 118.441 63.1251C120.787 63.1251 122.695 65.3293 122.695 68.0376V108.571L117.107 134.381C117.051 134.641 117.023 134.906 117.023 135.175V154.825C117.023 156.635 118.292 158.1 119.859 158.1C121.425 158.1 122.695 156.635 122.695 154.825V135.579L128.282 109.767C128.338 109.51 128.367 109.244 128.367 108.975V95.8751H136.875V128.625C136.875 134.044 140.691 138.45 145.383 138.45H156.727C161.417 138.45 165.234 134.044 165.234 128.625V118.8H173.742C178.433 118.8 182.25 114.394 182.25 108.975V56.5751C182.25 51.1585 178.433 46.7501 173.742 46.7501ZM9.25781 112.25C7.69378 112.25 6.42188 110.781 6.42188 108.975V56.5751C6.42188 54.7689 7.69378 53.3001 9.25781 53.3001H17.7656V112.25H9.25781ZM40.4531 128.625C40.4531 130.431 39.1796 131.9 37.6172 131.9H26.2734C24.7094 131.9 23.4375 130.431 23.4375 128.625V36.9251C23.4375 35.1189 24.7094 33.6501 26.2734 33.6501H37.6172C39.1796 33.6501 40.4531 35.1189 40.4531 36.9251V128.625ZM46.125 89.3251V76.2251H65.9766V89.3251H46.125ZM128.367 89.3251V76.2251H136.875V89.3251H128.367ZM159.562 128.625C159.562 130.431 158.289 131.9 156.727 131.9H145.383C143.819 131.9 142.547 130.431 142.547 128.625V36.9251C142.547 35.1189 143.819 33.6501 145.383 33.6501H156.727C158.289 33.6501 159.562 35.1189 159.562 36.9251V128.625ZM176.578 108.975C176.578 110.781 175.305 112.25 173.742 112.25H165.234V53.3001H173.742C175.305 53.3001 176.578 54.7689 176.578 56.5751V108.975Z" fill="black"/>
<path d="M91.5 33.6499C93.0657 33.6499 94.3359 32.1849 94.3359 30.3749V4.1749C94.3359 2.36493 93.0657 0.899902 91.5 0.899902C89.9327 0.899902 88.6641 2.36493 88.6641 4.1749V30.3749C88.6641 32.1849 89.9327 33.6499 91.5 33.6499Z" fill="black"/>
<path d="M66.8069 35.9659C67.3616 36.6046 68.087 36.9249 68.8124 36.9249C69.5378 36.9249 70.2632 36.6046 70.8179 35.9659C71.9257 34.6866 71.9257 32.6132 70.8179 31.3339L59.4742 18.2339C58.3664 16.9546 56.571 16.9546 55.4632 18.2339C54.3554 19.5132 54.3554 21.5866 55.4632 22.8659L66.8069 35.9659Z" fill="black"/>
<path d="M114.187 36.9249C114.913 36.9249 115.638 36.6046 116.191 35.9659L127.535 22.8659C128.643 21.5866 128.643 19.5132 127.535 18.2339C126.427 16.9546 124.633 16.9546 123.526 18.2339L112.182 31.3339C111.074 32.6132 111.074 34.6866 112.182 35.9659C112.735 36.6046 113.462 36.9249 114.187 36.9249Z" fill="black"/>
</svg>
