<svg width="30" height="30" viewBox="0 0 30 30" fill="none" xmlns="http://www.w3.org/2000/svg">
<mask id="mask0_1966_455" style="mask-type:luminance" maskUnits="userSpaceOnUse" x="0" y="0" width="30" height="30">
<path d="M0 0H30V30H0V0Z" fill="white"/>
</mask>
<g mask="url(#mask0_1966_455)">
<path d="M6.74877 0H23.2339C25.0966 0 26.7839 0.75557 28.014 1.98604C29.2267 3.19842 30 4.90343 30 6.74877V23.2335C30 25.0966 29.2267 26.7839 28.014 28.014C26.7839 29.2267 25.0966 30 23.2339 30H6.74877C4.90343 30 3.19878 29.2267 1.98604 28.014C0.755932 26.7839 0 25.0966 0 23.2335V6.74877C0 4.90343 0.755932 3.19842 1.98604 1.98604C3.19878 0.75557 4.90343 0 6.74877 0ZM23.2339 2.67144H6.74877C5.62391 2.67144 4.60467 3.12826 3.86646 3.86646C3.12826 4.60467 2.67144 5.62392 2.67144 6.74877V23.2335C2.67144 24.3584 3.12826 25.3776 3.86646 26.1158C4.60467 26.8717 5.62391 27.3286 6.74877 27.3286H23.2339C24.3587 27.3286 25.378 26.8717 26.1162 26.1158C26.8717 25.3776 27.3286 24.3584 27.3286 23.2335V6.74877C27.3286 5.62392 26.8717 4.60467 26.1162 3.86646C25.378 3.12826 24.3587 2.67144 23.2339 2.67144Z" fill="white"/>
</g>
<path d="M23.4095 5.23633C23.7784 5.23633 24.1299 5.37666 24.3585 5.62297C24.6045 5.86892 24.7625 6.20276 24.7625 6.57205C24.7625 6.94097 24.6045 7.29253 24.3585 7.52112C24.1299 7.76707 23.7784 7.92513 23.4095 7.92513C23.0402 7.92513 22.7063 7.76707 22.4604 7.52112C22.2144 7.29253 22.0737 6.94097 22.0737 6.57205C22.0737 6.20276 22.2144 5.86892 22.4604 5.62297C22.7063 5.37666 23.0402 5.23633 23.4095 5.23633Z" fill="white"/>
<path d="M14.991 7.71484C17.0121 7.71484 18.8223 8.54094 20.1403 9.84122C21.4583 11.1596 22.2844 12.9872 22.2844 14.9906C22.2844 17.0117 21.4583 18.822 20.1403 20.1403C18.8223 21.4583 17.0121 22.2844 14.991 22.2844C12.9876 22.2844 11.1596 21.4583 9.84158 20.1403C8.54094 18.822 7.71484 17.0117 7.71484 14.9906C7.71484 12.9872 8.54094 11.1596 9.84158 9.84122C11.1596 8.54094 12.9876 7.71484 14.991 7.71484ZM18.2422 11.7571C17.4161 10.931 16.2561 10.4036 14.991 10.4036C13.7254 10.4036 12.5832 10.931 11.7571 11.7571C10.931 12.5832 10.404 13.7254 10.404 14.9906C10.404 16.2561 10.931 17.4161 11.7571 18.2422C12.5832 19.0679 13.7254 19.5779 14.991 19.5779C16.2561 19.5779 17.4161 19.0679 18.2422 18.2422C19.0683 17.4161 19.5779 16.2561 19.5779 14.9906C19.5779 13.7254 19.0683 12.5832 18.2422 11.7571Z" fill="white"/>
</svg>
