<svg width="30" height="29" viewBox="0 0 30 29" fill="none" xmlns="http://www.w3.org/2000/svg">
<path d="M15 15.8203C14.0729 15.8203 13.1666 15.5626 12.3958 15.0797C11.6249 14.5968 11.0241 13.9105 10.6693 13.1075C10.3145 12.3045 10.2217 11.4209 10.4026 10.5685C10.5834 9.716 11.0299 8.93297 11.6854 8.31838C12.341 7.70379 13.1762 7.28526 14.0855 7.11569C14.9948 6.94613 15.9373 7.03315 16.7938 7.36577C17.6504 7.69838 18.3824 8.26164 18.8975 8.98431C19.4126 9.70699 19.6875 10.5566 19.6875 11.4258C19.686 12.5909 19.1917 13.7078 18.3129 14.5316C17.4342 15.3555 16.2427 15.8189 15 15.8203ZM15 8.78906C14.4437 8.78906 13.9 8.94371 13.4375 9.23343C12.9749 9.52316 12.6145 9.93496 12.4016 10.4168C12.1887 10.8986 12.133 11.4287 12.2415 11.9402C12.3501 12.4517 12.6179 12.9215 13.0113 13.2902C13.4046 13.659 13.9057 13.9101 14.4513 14.0118C14.9969 14.1136 15.5624 14.0614 16.0763 13.8618C16.5902 13.6622 17.0295 13.3243 17.3385 12.8907C17.6476 12.4571 17.8125 11.9473 17.8125 11.4258C17.8118 10.7267 17.5152 10.0564 16.9879 9.56211C16.4606 9.06778 15.7457 8.78976 15 8.78906Z" fill="white"/>
<path d="M15 26.3672L7.09126 17.6229C6.98136 17.4917 6.87261 17.3595 6.76501 17.2266C5.41473 15.5579 4.68499 13.5203 4.68751 11.4258C4.68751 8.86168 5.774 6.40259 7.70797 4.5895C9.64194 2.7764 12.265 1.75781 15 1.75781C17.7351 1.75781 20.3581 2.7764 22.292 4.5895C24.226 6.40259 25.3125 8.86168 25.3125 11.4258C25.3147 13.5193 24.5853 15.5558 23.2359 17.2239L23.235 17.2266C23.235 17.2266 22.9538 17.5729 22.9116 17.6194L15 26.3672ZM8.26219 16.1675C8.26219 16.1675 8.48063 16.4382 8.53032 16.4962L15 23.6496L21.4781 16.4865C21.5194 16.4382 21.7388 16.1657 21.7397 16.1648C22.8433 14.8018 23.4397 13.137 23.4375 11.4258C23.4375 9.32788 22.5486 7.3159 20.9662 5.83246C19.3839 4.34901 17.2378 3.51562 15 3.51562C12.7622 3.51562 10.6161 4.34901 9.03379 5.83246C7.45145 7.3159 6.56251 9.32788 6.56251 11.4258C6.56019 13.1382 7.1573 14.8039 8.26219 16.1675Z" fill="white"/>
</svg>
