<svg width="30" height="30" viewBox="0 0 30 30" fill="none" xmlns="http://www.w3.org/2000/svg">
<path d="M6.96372 9.85834C6.60559 7.49959 8.26872 5.38084 10.8093 4.60459C11.2602 4.46767 11.7463 4.50734 12.169 4.71556C12.5917 4.92377 12.9193 5.28494 13.0856 5.72584L13.9012 7.90084C14.0325 8.25074 14.0563 8.63189 13.9694 8.99538C13.8825 9.35887 13.689 9.68811 13.4137 9.94084L10.9875 12.1627C10.8677 12.2723 10.7785 12.4112 10.7285 12.5657C10.6786 12.7202 10.6696 12.885 10.7025 13.044L10.725 13.1415L10.7831 13.3852C11.0856 14.5693 11.5453 15.7075 12.15 16.7696C12.8102 17.8972 13.6285 18.9245 14.58 19.8202L14.655 19.8877C14.7761 19.9952 14.923 20.0695 15.0814 20.1034C15.2398 20.1372 15.4042 20.1295 15.5587 20.0808L18.6956 19.0927C19.0521 18.9808 19.4339 18.9779 19.792 19.0845C20.1502 19.1911 20.4683 19.4022 20.7056 19.6908L22.1906 21.4927C22.8093 22.2427 22.7343 23.3452 22.0237 24.0071C20.0793 25.8202 17.4056 26.1915 15.5456 24.6971C13.2647 22.859 11.3425 20.6158 9.87559 18.0802C8.39432 15.548 7.40755 12.7582 6.96372 9.85834ZM12.6675 13.1677L14.6775 11.3227C15.2284 10.8175 15.6158 10.1591 15.7898 9.4321C15.9639 8.70511 15.9167 7.94269 15.6543 7.24271L14.8406 5.06771C14.5068 4.18041 13.8477 3.45345 12.9972 3.0345C12.1468 2.61555 11.1688 2.53603 10.2618 2.81209C7.10622 3.77771 4.57309 6.60709 5.10934 10.1415C5.48434 12.609 6.34872 15.7477 8.25559 19.0252C9.8383 21.7592 11.9117 24.1778 14.3718 26.1596C17.1618 28.4002 20.8856 27.6352 23.3043 25.3815C23.9964 24.7371 24.4165 23.8528 24.4789 22.9093C24.5413 21.9657 24.2412 21.0339 23.64 20.304L22.155 18.5002C21.6799 17.9236 21.0435 17.5021 20.3272 17.2896C19.611 17.0771 18.8476 17.0834 18.135 17.3077L15.5306 18.1271C14.8581 17.4338 14.2691 16.6642 13.7756 15.834C13.2994 14.9944 12.9278 14.0996 12.6693 13.1696" fill="white"/>
</svg>
