<svg width="166" height="165" viewBox="0 0 166 165" fill="none" xmlns="http://www.w3.org/2000/svg">
<path d="M44.9783 19.9228H68.5532V28.3521C68.5532 35.5029 71.0949 39.0783 72.9436 42.1444C73.6382 43.4211 74.3312 44.6978 75.0243 46.4855H38.5057C39.1988 44.6978 39.8933 43.4211 40.5864 42.1444C42.4351 39.0783 44.9783 35.5029 44.9783 28.3521V19.9228ZM43.8227 5.36479H69.4768C70.8644 5.36479 71.788 6.38517 71.788 7.9182V11.75C71.788 13.0267 71.0949 14.0487 70.1713 14.3034C69.9393 14.3034 69.7088 14.3034 69.4768 14.3034H43.8227C42.4351 14.3034 41.51 13.2813 41.51 11.75V7.9182C41.51 6.64149 42.6671 5.36479 43.8227 5.36479ZM43.8227 0C39.8933 0 36.657 3.57707 36.657 7.9182V11.75C36.657 14.5597 38.0432 17.1131 40.1239 18.6461V28.0957C40.1239 33.9699 38.5057 35.5029 36.657 39.0783C34.5763 42.6538 32.2651 47.5076 32.2651 57.4682V81.9884C32.2651 83.5198 33.4207 84.5419 34.5763 84.5419C35.964 84.5419 36.8876 83.2652 36.8876 81.9884V57.4682C36.8876 55.1694 36.8876 53.3817 37.1196 51.594H75.7174C75.9494 53.127 75.9494 55.1694 75.9494 57.4682C75.9494 59.0012 77.105 60.0232 78.2606 60.0232C79.6468 60.0232 80.5719 58.7449 80.5719 57.4682C80.5719 47.5076 78.2606 42.6538 76.1799 39.0783C74.0992 35.5029 72.7131 33.9699 72.7131 28.0957V18.6461C74.7938 17.3694 76.1799 14.8144 76.1799 11.75V7.9182C76.1799 3.57707 72.9436 0 69.0142 0H43.8227Z" fill="white"/>
<path d="M64.1647 94.2744C62.316 94.2744 60.4673 94.2744 58.8492 94.5291C48.6792 95.5511 38.2787 98.3609 29.9574 103.213C21.8681 108.067 15.6274 114.963 15.1664 123.902C15.1664 124.413 15.1664 124.924 15.1664 125.435V140.758C14.9344 146.123 17.2456 150.975 21.175 154.807C25.1044 158.637 30.4199 161.703 36.43 163.235C42.208 165.022 48.4487 165.279 54.4573 164.768C63.9342 163.746 69.9428 158.893 76.8765 154.551C80.1128 152.508 83.1171 150.721 86.5839 149.699C87.7395 149.188 88.6646 147.911 88.2021 146.378C87.7395 144.845 86.5839 144.079 85.1978 144.59C81.2684 145.867 77.8016 147.911 74.3347 149.953C67.169 154.551 62.084 158.637 53.7642 159.404C48.4487 159.915 42.6706 159.659 37.3536 158.126C31.8075 156.595 27.1851 153.785 23.9488 150.721C20.7124 147.654 19.5568 144.335 19.5568 140.504V136.672C20.0194 137.183 20.2499 137.439 20.7124 137.949C24.6418 141.78 29.9574 144.845 35.9674 146.378C41.7455 147.911 47.9861 148.422 53.9947 147.911C63.4716 146.889 69.4802 142.037 76.4139 137.694C79.6502 135.65 82.8866 133.862 86.3534 132.842C87.7395 132.331 88.4326 131.052 87.9715 129.521C87.509 128.244 86.3534 127.222 84.9658 127.733C81.0364 129.01 77.5695 131.052 74.1027 133.096C66.9385 137.694 61.8535 141.78 53.5337 142.546C48.2166 143.057 42.4386 142.802 37.123 141.269C31.5755 139.738 26.9531 136.928 23.7167 133.862C20.7124 130.798 19.0943 127.477 19.3263 123.902C19.5568 117.516 24.1793 111.897 31.5755 107.556C38.9717 103.213 48.9097 100.403 58.3866 99.3812C71.5609 98.1045 86.5839 101.425 96.7539 107.045C97.9095 107.81 99.2957 107.299 99.9902 105.768C100.683 104.49 99.9902 102.958 98.8346 102.191C90.0508 97.5935 76.8765 94.2744 64.1647 94.2744Z" fill="white"/>
<path d="M44.5159 118.282C46.8271 118.282 48.9063 119.049 50.0619 119.815C51.4496 120.58 51.6801 121.602 51.6801 122.368C51.6801 123.135 51.2175 123.901 50.0619 124.923C48.6758 125.689 46.8271 126.454 44.5159 126.454C42.2046 126.454 40.1239 125.689 38.9683 124.923C37.5822 124.157 37.3502 123.135 37.3502 122.368C37.3502 121.602 37.8127 120.837 38.9683 119.815C40.1239 119.049 42.2046 118.282 44.5159 118.282ZM44.5159 112.918C41.5116 112.918 38.5058 113.684 36.4266 115.217C34.1153 116.75 32.4972 119.304 32.4972 122.113C32.4972 125.178 34.3459 127.477 36.4266 129.01C38.7378 130.543 41.5116 131.308 44.5159 131.308C47.5202 131.308 50.5245 130.543 52.6052 129.01C54.9164 127.477 56.5346 124.923 56.5346 122.113C56.5346 119.049 54.6844 116.75 52.6052 115.217C50.2939 113.94 47.5202 112.918 44.5159 112.918Z" fill="white"/>
<path fill-rule="evenodd" clip-rule="evenodd" d="M142.747 89.1656C143.903 89.1656 145.059 90.1876 145.059 91.719C145.059 93.252 144.135 94.274 142.747 94.274C141.592 94.274 140.436 93.252 140.436 91.719C140.436 90.1876 141.592 89.1656 142.747 89.1656ZM142.747 83.8008C138.818 83.8008 135.583 87.3779 135.583 91.719C135.583 96.0617 138.818 99.6372 142.747 99.6372C146.677 99.6372 149.913 96.0617 149.913 91.719C149.681 87.3779 146.677 83.8008 142.747 83.8008Z" fill="white"/>
<path fill-rule="evenodd" clip-rule="evenodd" d="M127.961 72.3073C126.805 71.5416 125.419 71.7979 124.726 73.0746C118.023 84.8229 116.405 100.148 121.49 113.684C121.952 114.963 123.338 115.728 124.726 115.217C125.882 114.706 126.575 113.173 126.112 111.897C121.72 99.892 123.108 86.356 129.116 76.139C129.348 74.606 129.116 73.0746 127.961 72.3073Z" fill="white"/>
<path fill-rule="evenodd" clip-rule="evenodd" d="M93.9792 48.2995C98.6016 50.5983 104.38 54.6847 109.695 60.0479C106.46 59.5369 102.994 59.5369 99.5267 59.5369C97.446 59.5369 95.5973 59.5369 93.5166 59.7932C93.9792 56.7271 93.9792 53.6627 93.9792 50.853C93.9792 49.8309 93.9792 49.3216 93.9792 48.2995ZM90.9749 40.3813C89.5872 40.3813 88.6636 41.6581 88.6636 43.1911C88.6636 44.4678 89.1262 47.5322 89.1262 50.853C89.1262 53.919 89.1262 57.4945 88.4316 60.3042C67.8611 63.6233 48.6782 75.6279 36.6595 85.8449C34.3483 87.8889 33.6552 87.8889 33.1927 87.8889C32.7301 87.8889 31.5745 86.8669 29.4953 84.8228L13.5473 68.9881C10.5415 65.922 6.38155 65.1563 3.37725 66.944C0.372954 68.7318 -1.01467 73.3292 0.835498 77.9267C4.76339 88.3983 8.23024 102.191 3.37725 118.027C2.45217 121.091 2.68418 124.412 4.30234 126.455C5.91901 128.499 8.69278 129.264 11.236 128.753C12.6222 128.499 13.3152 126.966 13.0847 125.689C12.8542 124.158 11.4666 123.39 10.0804 123.646C8.9248 123.901 8.23024 123.646 7.76918 123.135C7.30664 122.624 7.07462 121.602 7.76918 119.815C13.3152 102.191 9.38585 86.8669 5.22594 75.8843C4.07032 72.8182 4.76339 72.0525 5.68848 71.5415C6.61357 71.0305 8.46225 71.0305 10.3109 72.8182L26.259 88.6546C28.3397 90.697 29.7258 92.4864 32.2676 92.9957C34.8108 93.5067 37.1221 92.23 39.6638 90.1876C53.3007 78.694 77.1075 64.9016 99.7572 64.9016C126.106 64.9016 148.062 78.183 157.77 90.4423C159.851 93.252 161.006 95.2944 161.237 97.0822C161.469 98.8715 161.237 100.659 159.851 103.469C156.846 109.854 151.992 114.963 146.214 119.304C145.058 120.069 144.828 121.859 145.521 122.879C146.214 124.158 147.832 124.412 148.757 123.646C154.998 119.049 160.544 113.173 164.011 105.768C165.629 102.447 166.322 99.1262 165.859 96.0618C165.398 92.741 163.78 89.9313 161.237 87.1216C152.917 76.3953 137.199 65.922 117.786 61.5809C110.158 51.875 99.2947 42.9348 91.8985 40.636C91.6679 40.3813 91.2054 40.3813 90.9749 40.3813Z" fill="white"/>
<path fill-rule="evenodd" clip-rule="evenodd" d="M107.622 112.664C110.164 112.664 113.631 115.217 116.174 119.56C118.948 123.901 120.796 130.286 120.796 136.417C120.796 145.866 114.786 152.508 107.622 152.508C100.456 152.508 94.4476 145.866 94.4476 136.417C94.4476 130.286 96.2963 124.157 99.0701 119.56C101.844 115.217 105.079 112.664 107.622 112.664ZM107.622 107.299C102.537 107.299 98.145 111.385 95.1407 116.75C91.9044 122.113 89.8252 129.009 89.8252 136.417C89.8252 148.421 97.9145 157.616 107.852 157.616C117.792 157.616 125.881 148.165 125.881 136.417C125.881 129.009 123.801 122.113 120.564 116.75C117.097 111.385 112.707 107.299 107.622 107.299Z" fill="white"/>
<path fill-rule="evenodd" clip-rule="evenodd" d="M127.956 118.282C126.57 118.027 125.415 119.049 125.184 120.58C124.952 122.113 125.877 123.39 127.263 123.646C132.118 124.412 136.971 126.454 140.207 129.264C143.442 132.074 145.292 135.395 145.292 137.948C145.292 140.758 142.981 144.59 139.051 147.399C135.122 150.464 129.344 152.508 123.796 152.508C122.41 152.508 121.485 153.784 121.485 155.061C121.485 156.594 122.641 157.616 123.796 157.616C130.5 157.616 136.74 155.318 141.593 151.74C146.448 148.165 149.915 143.313 149.915 137.948C149.915 133.096 146.909 128.499 142.981 125.178C139.051 121.602 133.734 119.049 127.956 118.282Z" fill="white"/>
</svg>
