<svg width="142" height="150" viewBox="0 0 142 150" fill="none" xmlns="http://www.w3.org/2000/svg">
<mask id="mask0_2190_1686" style="mask-type:luminance" maskUnits="userSpaceOnUse" x="0" y="0" width="142" height="150">
<path d="M139.5 2.73633V146.736H2.5V2.73633H139.5Z" fill="white" stroke="white" stroke-width="5"/>
</mask>
<g mask="url(#mask0_2190_1686)">
<mask id="path-2-inside-1_2190_1686" fill="white">
<path d="M75.9544 0.236328C51.9678 0.236328 32.453 22.5177 32.453 49.903C32.453 62.902 38.8216 72.6127 44.9837 82.0071C49.9022 89.5124 54.5351 96.6604 55.3487 104.799V123.096C55.3487 132.297 61.3316 139.914 69.0862 141.191V144.009C69.0862 146.888 71.1433 149.236 73.6653 149.236H78.2445C80.7664 149.236 82.8236 146.888 82.8236 144.009V141.191C90.5771 139.914 96.56 132.297 96.56 123.096V107.147C96.5958 98.008 101.649 90.2367 107.006 82.0071C113.132 72.6127 119.456 62.902 119.456 49.903C119.456 22.5177 99.9409 0.236328 75.9544 0.236328ZM75.9544 5.46528C97.4189 5.46528 114.877 25.3969 114.877 49.903C114.877 61.1767 109.01 70.1824 103.34 78.8921C98.2062 86.7752 92.9114 94.893 92.0883 104.635H78.2445V96.9564C78.2445 95.5162 77.2159 94.3419 75.9544 94.3419C74.6939 94.3419 73.6653 95.5162 73.6653 96.9564V104.645H59.99C59.1585 94.9038 53.8195 86.7656 48.6502 78.8716C42.9349 70.1619 37.0321 61.1658 37.0321 49.903C37.0321 25.3969 54.4898 5.46528 75.9544 5.46528ZM75.6413 13.2967C69.5246 13.3581 63.5501 15.4106 58.3533 19.3113C57.2984 20.097 57.0117 21.7213 57.7094 22.9256C58.1478 23.692 58.8729 24.0999 59.6149 24.0999C60.0533 24.0999 60.4822 23.9676 60.8764 23.6716C66.8055 19.2187 73.933 17.5848 80.954 19.0562C82.206 19.3113 83.3959 18.3716 83.6193 16.9519C83.8522 15.5334 83.0291 14.175 81.7855 13.9199C79.7378 13.4808 77.6901 13.2762 75.6413 13.2967ZM91.6594 18.208C90.7826 18.0648 89.8615 18.5244 89.3704 19.4437C88.7169 20.6889 89.0658 22.2928 90.1566 23.0375C92.0441 24.3454 93.8062 25.9179 95.3796 27.725C95.8275 28.2352 96.4177 28.4903 96.9984 28.4903C97.5886 28.4903 98.1798 28.2352 98.6267 27.725C99.5204 26.7036 99.5204 25.0492 98.6267 24.0289C96.775 21.9246 94.7273 20.0874 92.5183 18.5653C92.2496 18.3813 91.9545 18.2597 91.6594 18.208ZM16.4802 19.872C15.5855 19.8924 14.7455 20.5061 14.3872 21.5059C13.9224 22.8438 14.4863 24.3754 15.6571 24.9072L24.1536 28.8271C24.4308 28.9607 24.7174 29.0221 25.003 29.0221C25.9062 29.0221 26.7746 28.3988 27.1319 27.3882C27.6061 26.0406 27.0339 24.5186 25.8619 23.9772L17.375 20.0561C17.0799 19.9237 16.7753 19.8624 16.4802 19.872ZM135.43 19.872C135.134 19.8624 134.83 19.9237 134.535 20.0561L126.048 23.9772C124.876 24.5186 124.304 26.0406 124.778 27.3882C125.135 28.3988 126.003 29.0221 126.906 29.0221C127.192 29.0221 127.478 28.9607 127.755 28.8271L136.252 24.9072C137.423 24.3754 137.987 22.8438 137.522 21.5059C137.164 20.5061 136.323 19.8924 135.43 19.872ZM7.26817 47.2897C6.00772 47.2897 4.97913 48.464 4.97913 49.903C4.97913 51.3432 6.00772 52.5175 7.26817 52.5175H21.0056C22.2671 52.5175 23.2947 51.3432 23.2947 49.903C23.2947 48.464 22.2671 47.2897 21.0056 47.2897H7.26817ZM130.904 47.2897C129.643 47.2897 128.614 48.464 128.614 49.903C128.614 51.3432 129.643 52.5175 130.904 52.5175H144.641C145.902 52.5175 146.931 51.3432 146.931 49.903C146.931 48.464 145.902 47.2897 144.641 47.2897H130.904ZM66.7961 57.7452C66.2154 57.7452 65.6252 58.0003 65.1773 58.5116C64.2836 59.5319 64.2836 61.1863 65.1773 62.2078L69.7564 67.4355C70.2043 67.9469 70.785 68.2019 71.3752 68.2019C71.9654 68.2019 72.5471 67.9469 72.994 67.4355C73.8887 66.4152 73.8887 64.7609 72.994 63.7394L68.4148 58.5116C67.968 58.0003 67.3778 57.7452 66.7961 57.7452ZM85.1126 57.7452C84.532 57.7452 83.9407 58.0003 83.4939 58.5116L74.3356 68.9671C73.9066 69.458 73.6653 70.121 73.6653 70.8152V86.4997C73.6653 87.9399 74.6939 89.1142 75.9544 89.1142C77.2159 89.1142 78.2445 87.9399 78.2445 86.4997V71.8981L86.7314 62.2078C87.6262 61.1863 87.6262 59.5319 86.7314 58.5116C86.2846 58.0003 85.6944 57.7452 85.1126 57.7452ZM25.0483 70.7851C24.7438 70.7851 24.4402 70.8465 24.1536 70.9788L15.6571 74.9C14.4863 75.4306 13.9224 76.9622 14.3872 78.3001C14.7539 79.3216 15.6129 79.934 16.5161 79.934C16.8017 79.934 17.0967 79.8726 17.375 79.7499L25.8619 75.8288C27.0339 75.2886 27.6061 73.7666 27.1319 72.419C26.7746 71.418 25.9336 70.8056 25.0483 70.7851ZM126.861 70.7948C125.976 70.8152 125.135 71.4288 124.778 72.4287C124.304 73.7666 124.876 75.2982 126.048 75.8396L134.535 79.7499C134.812 79.8835 135.107 79.934 135.394 79.934C136.297 79.934 137.155 79.3216 137.522 78.3001C137.987 76.9622 137.423 75.4414 136.252 74.9L127.755 70.9788C127.47 70.8465 127.165 70.7851 126.861 70.7948ZM59.9279 110.026H91.9819V112.946L59.9279 117.521V110.026ZM91.9819 118.215V123.096C91.9819 123.199 91.9545 123.301 91.9545 123.413L68.7015 126.731C67.4495 126.906 66.5642 128.212 66.7244 129.642C66.8677 130.969 67.8521 131.929 68.9871 131.929C69.0862 131.929 69.1757 131.929 69.2738 131.908L90.7647 128.845C88.8961 133.164 85.0326 136.166 80.5335 136.166H71.3752C65.0614 136.166 59.9279 130.306 59.9279 123.096V122.79L91.9819 118.215ZM73.6653 141.394H78.2445V144.009H73.6653V141.394Z"/>
</mask>
<path d="M75.9544 0.236328C51.9678 0.236328 32.453 22.5177 32.453 49.903C32.453 62.902 38.8216 72.6127 44.9837 82.0071C49.9022 89.5124 54.5351 96.6604 55.3487 104.799V123.096C55.3487 132.297 61.3316 139.914 69.0862 141.191V144.009C69.0862 146.888 71.1433 149.236 73.6653 149.236H78.2445C80.7664 149.236 82.8236 146.888 82.8236 144.009V141.191C90.5771 139.914 96.56 132.297 96.56 123.096V107.147C96.5958 98.008 101.649 90.2367 107.006 82.0071C113.132 72.6127 119.456 62.902 119.456 49.903C119.456 22.5177 99.9409 0.236328 75.9544 0.236328ZM75.9544 5.46528C97.4189 5.46528 114.877 25.3969 114.877 49.903C114.877 61.1767 109.01 70.1824 103.34 78.8921C98.2062 86.7752 92.9114 94.893 92.0883 104.635H78.2445V96.9564C78.2445 95.5162 77.2159 94.3419 75.9544 94.3419C74.6939 94.3419 73.6653 95.5162 73.6653 96.9564V104.645H59.99C59.1585 94.9038 53.8195 86.7656 48.6502 78.8716C42.9349 70.1619 37.0321 61.1658 37.0321 49.903C37.0321 25.3969 54.4898 5.46528 75.9544 5.46528ZM75.6413 13.2967C69.5246 13.3581 63.5501 15.4106 58.3533 19.3113C57.2984 20.097 57.0117 21.7213 57.7094 22.9256C58.1478 23.692 58.8729 24.0999 59.6149 24.0999C60.0533 24.0999 60.4822 23.9676 60.8764 23.6716C66.8055 19.2187 73.933 17.5848 80.954 19.0562C82.206 19.3113 83.3959 18.3716 83.6193 16.9519C83.8522 15.5334 83.0291 14.175 81.7855 13.9199C79.7378 13.4808 77.6901 13.2762 75.6413 13.2967ZM91.6594 18.208C90.7826 18.0648 89.8615 18.5244 89.3704 19.4437C88.7169 20.6889 89.0658 22.2928 90.1566 23.0375C92.0441 24.3454 93.8062 25.9179 95.3796 27.725C95.8275 28.2352 96.4177 28.4903 96.9984 28.4903C97.5886 28.4903 98.1798 28.2352 98.6267 27.725C99.5204 26.7036 99.5204 25.0492 98.6267 24.0289C96.775 21.9246 94.7273 20.0874 92.5183 18.5653C92.2496 18.3813 91.9545 18.2597 91.6594 18.208ZM16.4802 19.872C15.5855 19.8924 14.7455 20.5061 14.3872 21.5059C13.9224 22.8438 14.4863 24.3754 15.6571 24.9072L24.1536 28.8271C24.4308 28.9607 24.7174 29.0221 25.003 29.0221C25.9062 29.0221 26.7746 28.3988 27.1319 27.3882C27.6061 26.0406 27.0339 24.5186 25.8619 23.9772L17.375 20.0561C17.0799 19.9237 16.7753 19.8624 16.4802 19.872ZM135.43 19.872C135.134 19.8624 134.83 19.9237 134.535 20.0561L126.048 23.9772C124.876 24.5186 124.304 26.0406 124.778 27.3882C125.135 28.3988 126.003 29.0221 126.906 29.0221C127.192 29.0221 127.478 28.9607 127.755 28.8271L136.252 24.9072C137.423 24.3754 137.987 22.8438 137.522 21.5059C137.164 20.5061 136.323 19.8924 135.43 19.872ZM7.26817 47.2897C6.00772 47.2897 4.97913 48.464 4.97913 49.903C4.97913 51.3432 6.00772 52.5175 7.26817 52.5175H21.0056C22.2671 52.5175 23.2947 51.3432 23.2947 49.903C23.2947 48.464 22.2671 47.2897 21.0056 47.2897H7.26817ZM130.904 47.2897C129.643 47.2897 128.614 48.464 128.614 49.903C128.614 51.3432 129.643 52.5175 130.904 52.5175H144.641C145.902 52.5175 146.931 51.3432 146.931 49.903C146.931 48.464 145.902 47.2897 144.641 47.2897H130.904ZM66.7961 57.7452C66.2154 57.7452 65.6252 58.0003 65.1773 58.5116C64.2836 59.5319 64.2836 61.1863 65.1773 62.2078L69.7564 67.4355C70.2043 67.9469 70.785 68.2019 71.3752 68.2019C71.9654 68.2019 72.5471 67.9469 72.994 67.4355C73.8887 66.4152 73.8887 64.7609 72.994 63.7394L68.4148 58.5116C67.968 58.0003 67.3778 57.7452 66.7961 57.7452ZM85.1126 57.7452C84.532 57.7452 83.9407 58.0003 83.4939 58.5116L74.3356 68.9671C73.9066 69.458 73.6653 70.121 73.6653 70.8152V86.4997C73.6653 87.9399 74.6939 89.1142 75.9544 89.1142C77.2159 89.1142 78.2445 87.9399 78.2445 86.4997V71.8981L86.7314 62.2078C87.6262 61.1863 87.6262 59.5319 86.7314 58.5116C86.2846 58.0003 85.6944 57.7452 85.1126 57.7452ZM25.0483 70.7851C24.7438 70.7851 24.4402 70.8465 24.1536 70.9788L15.6571 74.9C14.4863 75.4306 13.9224 76.9622 14.3872 78.3001C14.7539 79.3216 15.6129 79.934 16.5161 79.934C16.8017 79.934 17.0967 79.8726 17.375 79.7499L25.8619 75.8288C27.0339 75.2886 27.6061 73.7666 27.1319 72.419C26.7746 71.418 25.9336 70.8056 25.0483 70.7851ZM126.861 70.7948C125.976 70.8152 125.135 71.4288 124.778 72.4287C124.304 73.7666 124.876 75.2982 126.048 75.8396L134.535 79.7499C134.812 79.8835 135.107 79.934 135.394 79.934C136.297 79.934 137.155 79.3216 137.522 78.3001C137.987 76.9622 137.423 75.4414 136.252 74.9L127.755 70.9788C127.47 70.8465 127.165 70.7851 126.861 70.7948ZM59.9279 110.026H91.9819V112.946L59.9279 117.521V110.026ZM91.9819 118.215V123.096C91.9819 123.199 91.9545 123.301 91.9545 123.413L68.7015 126.731C67.4495 126.906 66.5642 128.212 66.7244 129.642C66.8677 130.969 67.8521 131.929 68.9871 131.929C69.0862 131.929 69.1757 131.929 69.2738 131.908L90.7647 128.845C88.8961 133.164 85.0326 136.166 80.5335 136.166H71.3752C65.0614 136.166 59.9279 130.306 59.9279 123.096V122.79L91.9819 118.215ZM73.6653 141.394H78.2445V144.009H73.6653V141.394Z" fill="white" stroke="white" stroke-width="10" mask="url(#path-2-inside-1_2190_1686)"/>
</g>
</svg>
